<?xml version="1.0" standalone="no"?>
<!DOCTYPE svg PUBLIC "-//W3C//DTD SVG 20010904//EN"
 "http://www.w3.org/TR/2001/REC-SVG-20010904/DTD/svg10.dtd">
<svg version="1.0" xmlns="http://www.w3.org/2000/svg"
 width="732.000000pt" height="341.000000pt" viewBox="0 0 732.000000 341.000000"
 preserveAspectRatio="xMidYMid meet">

<g transform="translate(0.000000,341.000000) scale(0.100000,-0.100000)"
fill="#000000" stroke="none">
<path d="M1580 3385 c-140 -23 -190 -36 -190 -49 0 -6 11 -50 24 -96 13 -47
41 -150 61 -230 21 -80 41 -148 44 -152 3 -3 63 1 133 10 94 12 128 20 130 31
2 8 2 124 0 258 l-3 243 -62 -1 c-34 -1 -96 -7 -137 -14z"/>
<path d="M1880 3145 c0 -199 2 -256 12 -259 19 -6 223 -36 241 -36 16 0 30 38
87 245 59 212 67 246 59 251 -24 15 -266 54 -336 54 l-62 0 -1 -255z"/>
<path d="M2344 3247 c-44 -150 -75 -255 -100 -334 -14 -45 -23 -87 -20 -92 4
-5 21 -13 39 -17 17 -3 65 -24 105 -45 39 -22 75 -39 80 -39 4 0 31 35 59 78
29 42 73 106 99 142 25 36 61 88 80 115 19 28 41 60 50 72 15 21 13 22 -48 56
-100 56 -284 137 -310 137 -7 0 -22 -31 -34 -73z"/>
<path d="M1215 3295 c-16 -7 -50 -21 -75 -31 -25 -10 -87 -40 -137 -67 l-92
-49 18 -26 c10 -15 39 -63 66 -107 26 -44 77 -128 113 -188 l65 -107 32 20
c18 11 50 26 71 34 21 8 60 23 86 34 l47 21 -16 53 c-9 29 -19 62 -23 73 -4
11 -18 54 -30 95 -12 41 -29 98 -37 125 -8 28 -19 69 -25 93 -10 45 -17 48
-63 27z"/>
<path d="M2778 3093 c-8 -10 -21 -28 -29 -40 -8 -12 -32 -48 -55 -80 -142
-201 -192 -278 -188 -288 3 -7 23 -22 45 -34 21 -12 74 -55 116 -95 l78 -74
54 47 c31 25 64 54 76 63 11 9 30 26 43 36 13 11 42 35 64 54 36 28 124 103
152 128 10 10 -124 143 -209 207 -96 73 -124 93 -128 93 -2 0 -10 -8 -19 -17z"/>
<path d="M730 3033 c-76 -51 -209 -175 -210 -194 0 -4 21 -26 48 -50 26 -24
98 -91 160 -148 62 -58 122 -111 132 -118 23 -17 31 -13 98 47 28 25 63 54 77
66 27 21 27 21 9 50 -10 16 -21 31 -24 34 -3 3 -54 79 -114 170 -60 91 -112
168 -116 172 -3 4 -30 -9 -60 -29z"/>
<path d="M369 2662 c-57 -76 -127 -186 -131 -206 -2 -14 9 -25 42 -43 25 -13
61 -33 80 -45 19 -11 69 -39 110 -61 41 -22 86 -47 100 -56 14 -9 42 -24 63
-34 l38 -17 38 63 c22 34 48 74 60 89 12 14 21 30 21 35 -1 4 -27 28 -58 53
-31 25 -70 57 -87 71 -130 114 -231 199 -235 199 -3 -1 -21 -22 -41 -48z"/>
<path d="M113 2223 c-33 -94 -54 -166 -56 -198 -2 -30 -1 -30 68 -43 39 -6
104 -19 145 -28 41 -9 109 -22 150 -29 41 -7 87 -16 101 -20 25 -6 26 -4 43
62 32 120 33 110 -15 132 -24 11 -93 41 -154 66 -60 25 -119 50 -130 55 -41
18 -120 54 -126 57 -3 2 -15 -22 -26 -54z"/>
<path d="M1372 2148 c-9 -9 -12 -92 -12 -312 0 -298 0 -299 24 -340 57 -97
228 -167 294 -120 25 17 29 56 9 73 -8 6 -37 15 -66 21 -62 11 -78 20 -111 55
l-25 27 -5 291 c-3 161 -9 298 -13 305 -10 15 -79 16 -95 0z"/>
<path d="M2712 2148 c-9 -9 -12 -109 -12 -386 0 -345 1 -376 18 -388 23 -18
53 -17 80 2 21 15 22 21 22 182 0 197 8 223 80 260 54 27 101 28 157 2 75 -34
83 -58 83 -256 0 -153 2 -173 18 -187 21 -19 54 -22 83 -7 18 10 19 23 19 201
0 156 -3 197 -16 225 -23 47 -96 109 -151 128 -50 17 -173 22 -201 7 -9 -4
-29 -11 -44 -15 l-28 -6 0 113 c0 126 -5 137 -60 137 -20 0 -41 -5 -48 -12z"/>
<path d="M3376 2141 c-16 -17 -17 -46 -14 -313 4 -323 4 -322 70 -387 82 -80
237 -109 268 -50 19 35 -9 65 -68 73 -56 7 -111 40 -129 76 -8 16 -13 72 -13
158 l0 132 61 0 c76 0 99 12 99 50 0 38 -23 50 -99 50 l-61 0 0 98 c0 83 -3
102 -18 115 -25 23 -75 21 -96 -2z"/>
<path d="M7207 2142 c-14 -15 -17 -40 -17 -131 0 -104 -1 -113 -17 -106 -10 4
-45 14 -78 22 -131 32 -287 -37 -332 -145 -8 -20 -18 -71 -20 -112 -10 -143
34 -228 149 -286 43 -22 65 -26 132 -26 53 -1 94 5 120 16 36 15 40 15 58 -1
22 -20 74 -21 93 -2 11 11 14 85 16 381 3 345 2 368 -16 388 -23 25 -66 26
-88 2z m-97 -330 c60 -30 80 -72 80 -167 0 -69 -4 -88 -23 -116 -63 -94 -219
-93 -277 3 -30 50 -29 182 3 229 29 43 80 69 137 69 25 0 61 -8 80 -18z"/>
<path d="M1798 2104 c-21 -11 -28 -22 -28 -46 0 -36 23 -57 63 -58 47 0 67 17
67 55 0 28 -6 37 -30 50 -35 18 -38 18 -72 -1z"/>
<path d="M1787 1922 c-15 -16 -17 -50 -17 -270 0 -239 1 -253 20 -272 26 -26
64 -26 90 0 19 19 20 33 20 273 0 233 -1 255 -18 270 -25 22 -75 21 -95 -1z"/>
<path d="M2208 1925 c-66 -18 -137 -72 -165 -124 -19 -37 -23 -59 -23 -141 0
-130 6 -152 51 -204 61 -69 125 -96 226 -96 52 0 97 6 120 15 46 19 43 21 43
-20 0 -43 -46 -99 -97 -116 -49 -16 -128 -6 -163 20 -50 36 -120 18 -120 -31
0 -20 51 -64 99 -85 47 -21 183 -23 231 -4 64 26 119 71 147 119 l28 47 3 296
c3 264 2 298 -13 313 -27 27 -64 31 -93 9 -26 -18 -29 -18 -77 -2 -60 21 -132
22 -197 4z m182 -116 c56 -32 70 -63 70 -162 0 -97 -19 -136 -80 -168 -72 -39
-180 -12 -220 54 -30 48 -29 193 2 232 52 67 152 86 228 44z"/>
<path d="M4275 1924 c-119 -44 -150 -174 -60 -253 36 -31 117 -61 166 -61 65
0 108 -46 89 -94 -11 -29 -57 -56 -95 -56 -30 0 -85 26 -85 40 0 6 -15 18 -34
27 -29 13 -39 14 -65 3 -63 -26 -46 -79 44 -135 67 -41 176 -48 253 -15 134
58 169 185 74 272 -36 33 -122 68 -167 68 -86 0 -128 66 -66 103 48 28 89 19
139 -30 31 -30 112 0 112 41 0 24 -39 63 -85 85 -53 25 -158 28 -220 5z"/>
<path d="M4910 1926 c-58 -19 -94 -42 -133 -85 -48 -53 -60 -104 -55 -223 4
-86 8 -102 32 -137 56 -80 141 -121 253 -121 123 0 220 56 262 150 28 61 29
216 2 275 -53 116 -229 185 -361 141z m145 -97 c22 -6 54 -26 72 -46 33 -34
33 -35 33 -133 0 -92 -2 -101 -26 -130 -67 -79 -191 -79 -258 0 -24 29 -26 38
-26 131 0 94 1 100 28 129 25 29 87 59 122 60 8 0 33 -5 55 -11z"/>
<path d="M5410 1922 c-21 -17 -22 -25 -24 -198 -1 -167 1 -182 21 -220 26 -49
82 -100 137 -125 54 -25 189 -26 247 -2 39 15 42 15 51 0 11 -20 81 -23 95 -4
6 6 13 124 17 263 6 244 5 252 -15 278 -25 31 -61 34 -89 6 -18 -18 -20 -33
-20 -187 0 -149 -2 -172 -20 -200 -42 -69 -149 -93 -225 -50 -67 37 -75 66
-75 259 0 161 -1 167 -22 182 -29 21 -51 20 -78 -2z"/>
<path d="M6100 1920 c-19 -19 -20 -33 -20 -271 0 -153 4 -258 10 -270 12 -22
78 -27 98 -7 8 8 12 63 12 183 0 167 1 171 26 209 59 86 202 90 271 7 21 -25
22 -35 23 -199 0 -100 4 -182 10 -193 8 -14 21 -19 50 -19 70 0 72 8 68 221
l-3 187 -31 44 c-80 112 -224 153 -366 104 -37 -13 -42 -13 -61 5 -27 25 -62
24 -87 -1z"/>
<path d="M6 1714 c-3 -26 -6 -81 -6 -122 l0 -75 108 7 c104 6 273 22 360 32
l42 5 0 74 0 73 -47 6 c-27 3 -97 11 -158 17 -60 5 -141 14 -180 19 -115 15
-111 16 -119 -36z"/>
<path d="M410 1305 c-102 -20 -218 -41 -332 -61 -28 -4 -38 -11 -38 -24 0 -17
55 -189 62 -195 2 -2 197 75 318 126 14 6 50 20 80 31 30 11 58 23 62 27 9 8
-16 114 -28 117 -5 1 -61 -8 -124 -21z"/>
<path d="M580 980 c-36 -16 -72 -30 -81 -30 -8 0 -19 -4 -25 -9 -5 -4 -73 -32
-151 -61 -79 -30 -143 -57 -143 -61 0 -24 105 -209 119 -209 5 0 19 8 32 18
25 20 169 120 197 137 9 6 52 36 96 68 44 31 83 57 88 57 4 0 -7 27 -24 60
-18 33 -35 60 -38 60 -3 0 -34 -14 -70 -30z"/>
<path d="M1392 794 l-22 -15 0 -373 c0 -349 1 -374 18 -389 23 -21 51 -22 80
-1 21 14 22 23 22 130 0 63 1 114 3 114 2 0 25 -7 51 -16 72 -25 199 -16 257
18 102 60 132 112 137 243 4 78 1 99 -18 143 -26 59 -73 106 -139 135 -60 27
-200 29 -249 3 -31 -16 -34 -16 -59 4 -31 24 -51 25 -81 4z m380 -142 l40 -43
-4 -99 c-3 -109 -12 -126 -80 -161 -50 -25 -105 -24 -158 4 -60 31 -80 73 -80
165 0 78 12 113 52 148 33 31 45 34 122 31 66 -3 69 -4 108 -45z"/>
<path d="M2080 797 l-25 -13 0 -269 0 -270 28 -9 c17 -6 37 -6 55 0 l27 9 5
181 c4 149 8 185 23 207 25 38 57 57 117 66 66 11 88 30 74 68 -9 26 -14 28
-71 31 -39 2 -75 -3 -99 -13 -32 -13 -39 -13 -53 -1 -25 22 -54 27 -81 13z"/>
<path d="M2665 801 c-86 -16 -186 -94 -205 -162 -16 -54 -12 -214 6 -257 70
-169 328 -209 480 -75 52 46 67 87 72 194 4 82 1 102 -18 147 -25 58 -74 106
-134 132 -48 21 -145 31 -201 21z m148 -116 c18 -8 42 -30 55 -48 19 -28 22
-46 22 -124 0 -85 -2 -94 -27 -124 -51 -60 -140 -76 -213 -39 -64 33 -75 59
-72 169 2 105 12 129 65 161 39 24 125 27 170 5z"/>
<path d="M759 604 c-57 -48 -146 -120 -197 -162 -100 -80 -100 -80 -45 -125
13 -10 36 -32 53 -49 27 -26 33 -29 44 -17 7 8 77 99 155 203 l143 189 -24 24
-24 24 -105 -87z"/>
</g>
</svg>
