<?xml version="1.0" encoding="UTF-8"?>
<!DOCTYPE svg PUBLIC "-//W3C//DTD SVG 1.1//EN" "http://www.w3.org/Graphics/SVG/1.1/DTD/svg11.dtd">
<svg xmlns="http://www.w3.org/2000/svg" version="1.1" width="732px" height="341px" style="shape-rendering:geometricPrecision; text-rendering:geometricPrecision; image-rendering:optimizeQuality; fill-rule:evenodd; clip-rule:evenodd" xmlns:xlink="http://www.w3.org/1999/xlink">
<g><path style="opacity:0.706" fill="#f7af97" d="M 160.5,-0.5 C 165.833,-0.5 171.167,-0.5 176.5,-0.5C 169.347,0.53761 162.014,1.20428 154.5,1.5C 156.5,0.833333 158.5,0.166667 160.5,-0.5 Z"/></g>
<g><path style="opacity:0.224" fill="#f8d1bd" d="M 196.5,-0.5 C 199.833,-0.5 203.167,-0.5 206.5,-0.5C 210.191,0.393406 213.858,1.39341 217.5,2.5C 215.167,2.5 212.833,2.5 210.5,2.5C 210.167,2.5 209.833,2.5 209.5,2.5C 205.241,1.13891 200.907,0.138908 196.5,-0.5 Z"/></g>
<g><path style="opacity:0.976" fill="#e56d4e" d="M 210.5,2.5 C 212.833,2.5 215.167,2.5 217.5,2.5C 219.099,2.23219 220.432,2.56552 221.5,3.5C 221.5,3.83333 221.5,4.16667 221.5,4.5C 217.663,4.06914 213.997,3.40247 210.5,2.5 Z"/></g>
<g><path style="opacity:0.067" fill="#f7cab9" d="M 221.5,4.5 C 221.5,4.16667 221.5,3.83333 221.5,3.5C 229.234,2.86604 231.234,5.86604 227.5,12.5C 227.808,10.076 227.474,7.74269 226.5,5.5C 224.929,4.69063 223.262,4.35729 221.5,4.5 Z"/></g>
<g><path style="opacity:0.639" fill="#facfbd" d="M 154.5,1.5 C 149.383,2.62895 144.216,3.96229 139,5.5C 138.333,7.5 138.333,9.5 139,11.5C 141.479,19.7675 143.646,28.1009 145.5,36.5C 141.904,26.8073 138.904,16.8073 136.5,6.5C 136.977,5.52242 137.643,4.68909 138.5,4C 143.73,2.45373 149.063,1.62039 154.5,1.5 Z"/></g>
<g><path style="opacity:1" fill="#f73f14" d="M 176.5,-0.5 C 177.167,-0.5 177.833,-0.5 178.5,-0.5C 179.153,17.5316 178.486,35.1983 176.5,52.5C 171.489,52.3341 166.489,52.5007 161.5,53C 160.584,53.2784 159.918,53.7784 159.5,54.5C 156.545,55.1587 153.545,55.4921 150.5,55.5C 150.59,52.8478 149.924,50.5145 148.5,48.5C 148.568,44.4296 147.568,40.763 145.5,37.5C 145.5,37.1667 145.5,36.8333 145.5,36.5C 143.646,28.1009 141.479,19.7675 139,11.5C 138.333,9.5 138.333,7.5 139,5.5C 144.216,3.96229 149.383,2.62895 154.5,1.5C 162.014,1.20428 169.347,0.53761 176.5,-0.5 Z"/></g>
<g><path style="opacity:1" fill="#f83d11" d="M 209.5,2.5 C 209.833,2.5 210.167,2.5 210.5,2.5C 213.997,3.40247 217.663,4.06914 221.5,4.5C 223.262,4.35729 224.929,4.69063 226.5,5.5C 227.474,7.74269 227.808,10.076 227.5,12.5C 225.742,15.8544 224.742,19.521 224.5,23.5C 223.351,23.7911 222.684,24.6244 222.5,26C 221.841,28.4621 221.507,30.9621 221.5,33.5C 218.901,39.2289 217.234,45.2289 216.5,51.5C 215.833,51.5 215.5,51.8333 215.5,52.5C 212.416,54.1014 209.083,54.7681 205.5,54.5C 202.391,54.7359 199.391,54.4025 196.5,53.5C 194.052,52.5269 191.385,52.1936 188.5,52.5C 188.5,35.5 188.5,18.5 188.5,1.5C 195.52,1.5015 202.52,1.83484 209.5,2.5 Z"/></g>
<g><path style="opacity:0.09" fill="#fad6c6" d="M 258.5,15.5 C 250.753,13.1296 243.086,10.4629 235.5,7.5C 235.369,6.62356 235.702,5.95689 236.5,5.5C 243.985,8.65457 251.318,11.9879 258.5,15.5 Z"/></g>
<g><path style="opacity:0.078" fill="#edd7ce" d="M 128.5,14.5 C 128.167,14.5 127.833,14.5 127.5,14.5C 126.962,12.8828 126.629,11.2161 126.5,9.5C 125.167,9.5 123.833,9.5 122.5,9.5C 123.688,8.63638 124.855,7.63638 126,6.5C 127.731,8.86184 128.565,11.5285 128.5,14.5 Z"/></g>
<g><path style="opacity:0.929" fill="#e58463" d="M 186.5,-0.5 C 189.833,-0.5 193.167,-0.5 196.5,-0.5C 200.907,0.138908 205.241,1.13891 209.5,2.5C 202.52,1.83484 195.52,1.5015 188.5,1.5C 188.5,18.5 188.5,35.5 188.5,52.5C 191.385,52.1936 194.052,52.5269 196.5,53.5C 193.833,53.5 191.167,53.5 188.5,53.5C 186.513,35.8644 185.847,17.8644 186.5,-0.5 Z"/></g>
<g><path style="opacity:0.796" fill="#e8a395" d="M 122.5,9.5 C 121.365,11.2132 119.698,11.8799 117.5,11.5C 118.78,10.0687 120.447,9.40206 122.5,9.5 Z"/></g>
<g><path style="opacity:1" fill="#de4822" d="M 122.5,9.5 C 123.833,9.5 125.167,9.5 126.5,9.5C 126.629,11.2161 126.962,12.8828 127.5,14.5C 126.15,13.5169 125.15,12.1836 124.5,10.5C 122.672,11.7952 120.672,12.7952 118.5,13.5C 119.506,14.3957 119.506,15.0623 118.5,15.5C 116.591,14.6518 114.591,14.3184 112.5,14.5C 114.072,13.3127 115.739,12.3127 117.5,11.5C 119.698,11.8799 121.365,11.2132 122.5,9.5 Z"/></g>
<g><path style="opacity:0.204" fill="#fcd4cb" d="M 117.5,11.5 C 115.739,12.3127 114.072,13.3127 112.5,14.5C 110.883,15.038 109.216,15.3713 107.5,15.5C 110.188,13.7337 113.021,12.067 116,10.5C 116.383,11.056 116.883,11.3893 117.5,11.5 Z"/></g>
<g><path style="opacity:0.4" fill="#f6c8b4" d="M 235.5,7.5 C 235.05,13.3242 233.384,18.6575 230.5,23.5C 231.568,17.8687 233.235,12.5354 235.5,7.5 Z"/></g>
<g><path style="opacity:0.024" fill="#fdf2d9" d="M 128.5,14.5 C 130.074,16.1016 130.741,18.1016 130.5,20.5C 129.262,18.7857 128.595,16.7857 128.5,14.5 Z"/></g>
<g><path style="opacity:0.125" fill="#f7ccbe" d="M 258.5,15.5 C 261.331,16.0787 263.664,17.412 265.5,19.5C 264.448,19.6495 263.448,19.4828 262.5,19C 260.681,18.2597 259.348,17.0931 258.5,15.5 Z"/></g>
<g><path style="opacity:0.2" fill="#fbd0c5" d="M 227.5,12.5 C 227.258,16.479 226.258,20.1456 224.5,23.5C 224.742,19.521 225.742,15.8544 227.5,12.5 Z"/></g>
<g><path style="opacity:0.008" fill="#ebf2e7" d="M 227.5,18.5 C 228.833,19.1667 228.833,19.1667 227.5,18.5 Z"/></g>
<g><path style="opacity:1" fill="#f73e13" d="M 235.5,7.5 C 243.086,10.4629 250.753,13.1296 258.5,15.5C 259.348,17.0931 260.681,18.2597 262.5,19C 263.448,19.4828 264.448,19.6495 265.5,19.5C 268.008,21.9236 271.008,23.5903 274.5,24.5C 273.957,27.0384 272.957,29.3718 271.5,31.5C 271.068,32.7095 270.401,33.7095 269.5,34.5C 267.457,35.5794 266.124,37.246 265.5,39.5C 264.178,39.67 263.011,39.3366 262,38.5C 261.798,40.2556 261.298,41.9223 260.5,43.5C 259.914,43.2907 259.414,42.9574 259,42.5C 258.29,43.9733 257.124,44.6399 255.5,44.5C 255.369,48.285 254.702,51.9517 253.5,55.5C 252.044,57.2845 251.044,59.2845 250.5,61.5C 248.393,64.0366 246.059,66.3699 243.5,68.5C 241.484,67.8224 239.484,67.1557 237.5,66.5C 236.508,66.6716 235.842,66.3382 235.5,65.5C 231.553,62.7595 227.22,60.5928 222.5,59C 221.62,57.6439 221.286,56.1439 221.5,54.5C 223.277,51.4954 224.277,48.1621 224.5,44.5C 226.074,42.8984 226.741,40.8984 226.5,38.5C 227.924,36.4855 228.59,34.1522 228.5,31.5C 230.04,29.1617 230.706,26.4951 230.5,23.5C 233.384,18.6575 235.05,13.3242 235.5,7.5 Z"/></g>
<g><path style="opacity:0.224" fill="#f7cebf" d="M 107.5,15.5 C 102.855,18.8262 97.8553,21.6595 92.5,24C 91.1772,24.8159 90.5106,25.9826 90.5,27.5C 89.2006,25.8466 89.5339,24.3466 91.5,23C 96.7454,20.2094 102.079,17.7094 107.5,15.5 Z"/></g>
<g><path style="opacity:1" fill="#f73f14" d="M 127.5,14.5 C 127.833,14.5 128.167,14.5 128.5,14.5C 128.595,16.7857 129.262,18.7857 130.5,20.5C 130.5,20.8333 130.5,21.1667 130.5,21.5C 130.171,24.2282 130.837,26.5615 132.5,28.5C 132.32,32.2856 133.32,35.619 135.5,38.5C 136.434,39.5676 136.768,40.901 136.5,42.5C 137.706,47.862 139.039,53.1954 140.5,58.5C 138.447,58.4021 136.78,59.0687 135.5,60.5C 128.816,61.8308 122.816,64.4975 117.5,68.5C 116.508,66.1851 114.842,64.5184 112.5,63.5C 111.662,63.1583 111.328,62.4916 111.5,61.5C 111.316,58.6627 109.982,56.6627 107.5,55.5C 107.416,52.3183 106.083,49.985 103.5,48.5C 102.662,48.1583 102.328,47.4916 102.5,46.5C 101.617,43.2957 99.9501,40.6291 97.5,38.5C 97.573,36.9731 96.9063,35.9731 95.5,35.5C 94.8486,32.197 93.182,29.5303 90.5,27.5C 90.5106,25.9826 91.1772,24.8159 92.5,24C 97.8553,21.6595 102.855,18.8262 107.5,15.5C 109.216,15.3713 110.883,15.038 112.5,14.5C 114.591,14.3184 116.591,14.6518 118.5,15.5C 119.506,15.0623 119.506,14.3957 118.5,13.5C 120.672,12.7952 122.672,11.7952 124.5,10.5C 125.15,12.1836 126.15,13.5169 127.5,14.5 Z"/></g>
<g><path style="opacity:0.153" fill="#f8d6c3" d="M 265.5,19.5 C 268.948,20.3901 271.948,22.0568 274.5,24.5C 271.008,23.5903 268.008,21.9236 265.5,19.5 Z"/></g>
<g><path style="opacity:0.059" fill="#fcd9c0" d="M 130.5,21.5 C 131.924,23.5145 132.59,25.8478 132.5,28.5C 130.837,26.5615 130.171,24.2282 130.5,21.5 Z"/></g>
<g><path style="opacity:0.482" fill="#f4ae9e" d="M 224.5,23.5 C 223.87,27.0477 222.87,30.3811 221.5,33.5C 221.507,30.9621 221.841,28.4621 222.5,26C 222.684,24.6244 223.351,23.7911 224.5,23.5 Z"/></g>
<g><path style="opacity:0.082" fill="#f9ccbe" d="M 274.5,24.5 C 275.289,24.7828 275.956,25.2828 276.5,26C 275.285,28.3754 273.619,30.2088 271.5,31.5C 272.957,29.3718 273.957,27.0384 274.5,24.5 Z"/></g>
<g><path style="opacity:0.725" fill="#f3c4b3" d="M 289.5,35.5 C 286.12,33.3903 282.62,31.3903 279,29.5C 276.622,31.7083 274.456,34.0416 272.5,36.5C 273.773,33.3914 275.273,30.3914 277,27.5C 280.182,28.1918 283.349,29.6918 286.5,32C 287.71,33.0391 288.71,34.2058 289.5,35.5 Z"/></g>
<g><path style="opacity:0.337" fill="#f9cdb2" d="M 90.5,27.5 C 93.182,29.5303 94.8486,32.197 95.5,35.5C 93.336,33.178 91.6693,30.5113 90.5,27.5 Z"/></g>
<g><path style="opacity:0.522" fill="#f8b8a6" d="M 230.5,23.5 C 230.706,26.4951 230.04,29.1617 228.5,31.5C 228.294,28.5049 228.96,25.8383 230.5,23.5 Z"/></g>
<g><path style="opacity:0.02" fill="#faddcc" d="M 80.5,35.5 C 78.9253,33.2139 76.9253,32.8806 74.5,34.5C 75.6874,32.0246 77.6874,31.0246 80.5,31.5C 80.5,32.8333 80.5,34.1667 80.5,35.5 Z"/></g>
<g><path style="opacity:0.847" fill="#f4aa99" d="M 132.5,28.5 C 134.277,31.5046 135.277,34.8379 135.5,38.5C 133.32,35.619 132.32,32.2856 132.5,28.5 Z"/></g>
<g><path style="opacity:0.812" fill="#f2a892" d="M 228.5,31.5 C 228.59,34.1522 227.924,36.4855 226.5,38.5C 226.171,35.7718 226.837,33.4385 228.5,31.5 Z"/></g>
<g><path style="opacity:0.431" fill="#fdcbba" d="M 74.5,34.5 C 74.0269,35.9063 73.0269,36.573 71.5,36.5C 71.9731,35.0937 72.9731,34.427 74.5,34.5 Z"/></g>
<g><path style="opacity:0.133" fill="#f9c5ae" d="M 269.5,34.5 C 268.66,36.8525 267.326,38.8525 265.5,40.5C 265.5,40.1667 265.5,39.8333 265.5,39.5C 266.124,37.246 267.457,35.5794 269.5,34.5 Z"/></g>
<g><path style="opacity:0.024" fill="#fcd7c1" d="M 95.5,35.5 C 96.9063,35.9731 97.573,36.9731 97.5,38.5C 96.0937,38.0269 95.427,37.0269 95.5,35.5 Z"/></g>
<g><path style="opacity:0.431" fill="#f8cab9" d="M 71.5,36.5 C 71.0269,37.9063 70.0269,38.573 68.5,38.5C 68.9731,37.0937 69.9731,36.427 71.5,36.5 Z"/></g>
<g><path style="opacity:0.169" fill="#f9ccb9" d="M 289.5,35.5 C 291.749,36.0798 293.415,37.4131 294.5,39.5C 292.251,38.9202 290.585,37.5869 289.5,35.5 Z"/></g>
<g><path style="opacity:1" fill="#f63e13" d="M 80.5,35.5 C 80.9287,38.1473 82.2621,40.1473 84.5,41.5C 84.7376,43.4044 85.7376,44.7377 87.5,45.5C 87.2852,47.1788 87.9519,48.1788 89.5,48.5C 89.1568,50.4832 89.8235,51.8166 91.5,52.5C 93.3437,56.1916 95.6771,59.5249 98.5,62.5C 98.427,64.0269 99.0937,65.0269 100.5,65.5C 100.427,67.0269 101.094,68.0269 102.5,68.5C 102.427,70.0269 103.094,71.0269 104.5,71.5C 105.038,73.1172 105.371,74.7839 105.5,76.5C 101.296,78.0332 97.9626,80.6998 95.5,84.5C 92.5877,86.0663 89.921,88.0663 87.5,90.5C 83.0887,86.0801 78.422,82.0801 73.5,78.5C 72.4154,76.4131 70.7488,75.0798 68.5,74.5C 68.5,74.1667 68.5,73.8333 68.5,73.5C 68.0269,72.0937 67.0269,71.427 65.5,71.5C 64.7084,67.5546 62.3751,65.2213 58.5,64.5C 57.4154,62.4131 55.7488,61.0798 53.5,60.5C 53.5,59.1667 52.8333,58.5 51.5,58.5C 52.1682,55.4998 53.5016,52.8331 55.5,50.5C 57.1436,50.1898 58.1436,49.1898 58.5,47.5C 59.8333,46.8333 60.8333,45.8333 61.5,44.5C 64.4274,43.2427 66.7607,41.2427 68.5,38.5C 70.0269,38.573 71.0269,37.9063 71.5,36.5C 73.0269,36.573 74.0269,35.9063 74.5,34.5C 76.9253,32.8806 78.9253,33.2139 80.5,35.5 Z"/></g>
<g><path style="opacity:0.514" fill="#f8bcab" d="M 272.5,36.5 C 272.262,38.4044 271.262,39.7377 269.5,40.5C 269.738,38.5956 270.738,37.2623 272.5,36.5 Z"/></g>
<g><path style="opacity:1" fill="#f73e12" d="M 289.5,35.5 C 290.585,37.5869 292.251,38.9202 294.5,39.5C 297.231,43.2343 300.564,46.2343 304.5,48.5C 305.988,51.4423 307.988,54.1089 310.5,56.5C 311.246,57.7362 311.579,59.0695 311.5,60.5C 310.833,61.5 310.167,62.5 309.5,63.5C 307.628,64.5114 305.628,65.3448 303.5,66C 302.748,66.6708 302.414,67.5041 302.5,68.5C 298.417,72.1854 294.417,75.8521 290.5,79.5C 284.878,83.1221 279.878,87.4554 275.5,92.5C 273.678,92.1692 272.011,91.5025 270.5,90.5C 270.631,89.7611 270.464,89.0944 270,88.5C 268.349,86.7898 266.516,85.4564 264.5,84.5C 263.188,82.5212 261.521,80.8545 259.5,79.5C 258.614,78.675 258.281,77.675 258.5,76.5C 255.892,76.5997 253.558,75.9331 251.5,74.5C 250.058,73.1805 249.392,71.5138 249.5,69.5C 250.974,68.5637 251.974,67.2303 252.5,65.5C 252.328,64.5084 252.662,63.8417 253.5,63.5C 254.906,63.0269 255.573,62.0269 255.5,60.5C 257.877,58.772 259.544,56.4386 260.5,53.5C 262.9,51.7036 264.567,49.3702 265.5,46.5C 267.822,45.1979 269.155,43.1979 269.5,40.5C 271.262,39.7377 272.262,38.4044 272.5,36.5C 274.456,34.0416 276.622,31.7083 279,29.5C 282.62,31.3903 286.12,33.3903 289.5,35.5 Z"/></g>
<g><path style="opacity:0.565" fill="#f7b7a8" d="M 80.5,35.5 C 82.369,37.0337 83.7023,39.0337 84.5,41.5C 82.2621,40.1473 80.9287,38.1473 80.5,35.5 Z"/></g>
<g><path style="opacity:0.298" fill="#fac5b4" d="M 97.5,38.5 C 99.9501,40.6291 101.617,43.2957 102.5,46.5C 100.05,44.3709 98.3833,41.7043 97.5,38.5 Z"/></g>
<g><path style="opacity:0.796" fill="#f8a996" d="M 226.5,38.5 C 226.741,40.8984 226.074,42.8984 224.5,44.5C 224.595,42.2143 225.262,40.2143 226.5,38.5 Z"/></g>
<g><path style="opacity:0.404" fill="#f7bca6" d="M 145.5,37.5 C 147.568,40.763 148.568,44.4296 148.5,48.5C 146.517,45.2006 145.517,41.5339 145.5,37.5 Z"/></g>
<g><path style="opacity:0.322" fill="#facab0" d="M 269.5,40.5 C 269.155,43.1979 267.822,45.1979 265.5,46.5C 266.34,44.1475 267.674,42.1475 269.5,40.5 Z"/></g>
<g><path style="opacity:0.576" fill="#f3baac" d="M 68.5,38.5 C 66.7607,41.2427 64.4274,43.2427 61.5,44.5C 63.2393,41.7573 65.5726,39.7573 68.5,38.5 Z"/></g>
<g><path style="opacity:0.38" fill="#f9cdb9" d="M 84.5,41.5 C 86.2624,42.2623 87.2624,43.5956 87.5,45.5C 85.7376,44.7377 84.7376,43.4044 84.5,41.5 Z"/></g>
<g><path style="opacity:0.278" fill="#f3c0a9" d="M 294.5,39.5 C 298.482,41.8169 301.815,44.8169 304.5,48.5C 300.564,46.2343 297.231,43.2343 294.5,39.5 Z"/></g>
<g><path style="opacity:0.365" fill="#fbc5bc" d="M 61.5,44.5 C 60.8333,45.8333 59.8333,46.8333 58.5,47.5C 58.5,45.5 59.5,44.5 61.5,44.5 Z"/></g>
<g><path style="opacity:0.078" fill="#f9cfbd" d="M 136.5,42.5 C 138.721,47.0347 140.387,51.868 141.5,57C 140.617,59.906 138.617,61.0727 135.5,60.5C 136.78,59.0687 138.447,58.4021 140.5,58.5C 139.039,53.1954 137.706,47.862 136.5,42.5 Z"/></g>
<g><path style="opacity:1" fill="#f4a288" d="M 221.5,33.5 C 220.435,39.7691 218.769,45.7691 216.5,51.5C 217.234,45.2289 218.901,39.2289 221.5,33.5 Z"/></g>
<g><path style="opacity:0.294" fill="#f6c5b9" d="M 87.5,45.5 C 88.4013,46.2905 89.0679,47.2905 89.5,48.5C 87.9519,48.1788 87.2852,47.1788 87.5,45.5 Z"/></g>
<g><path style="opacity:0.18" fill="#efae9e" d="M 261.5,45.5 C 261.573,47.0269 260.906,48.0269 259.5,48.5C 259.427,46.9731 260.094,45.9731 261.5,45.5 Z"/></g>
<g><path style="opacity:0.749" fill="#f3aa9a" d="M 224.5,44.5 C 224.277,48.1621 223.277,51.4954 221.5,54.5C 221.723,50.8379 222.723,47.5046 224.5,44.5 Z"/></g>
<g><path style="opacity:1" fill="#f2552b" d="M 265.5,39.5 C 265.5,39.8333 265.5,40.1667 265.5,40.5C 264.876,42.754 263.543,44.4206 261.5,45.5C 260.094,45.9731 259.427,46.9731 259.5,48.5C 259.672,49.4916 259.338,50.1583 258.5,50.5C 256.738,51.2623 255.738,52.5956 255.5,54.5C 255.5,55.1667 255.167,55.5 254.5,55.5C 254.167,55.5 253.833,55.5 253.5,55.5C 254.702,51.9517 255.369,48.285 255.5,44.5C 257.124,44.6399 258.29,43.9733 259,42.5C 259.414,42.9574 259.914,43.2907 260.5,43.5C 261.298,41.9223 261.798,40.2556 262,38.5C 263.011,39.3366 264.178,39.67 265.5,39.5 Z"/></g>
<g><path style="opacity:0.596" fill="#f1c3a9" d="M 265.5,46.5 C 264.567,49.3702 262.9,51.7036 260.5,53.5C 261.433,50.6298 263.1,48.2964 265.5,46.5 Z"/></g>
<g><path style="opacity:0.882" fill="#ed9f89" d="M 58.5,47.5 C 58.1436,49.1898 57.1436,50.1898 55.5,50.5C 55.5,48.5 56.5,47.5 58.5,47.5 Z"/></g>
<g><path style="opacity:0.561" fill="#f5b2a0" d="M 103.5,48.5 C 106.083,49.985 107.416,52.3183 107.5,55.5C 105.917,53.3374 104.584,51.0041 103.5,48.5 Z"/></g>
<g><path style="opacity:0.984" fill="#eb8f71" d="M 89.5,48.5 C 90.6737,49.5137 91.3404,50.847 91.5,52.5C 89.8235,51.8166 89.1568,50.4832 89.5,48.5 Z"/></g>
<g><path style="opacity:0.82" fill="#edab96" d="M 55.5,50.5 C 53.5016,52.8331 52.1682,55.4998 51.5,58.5C 49.7748,58.1575 49.2748,57.1575 50,55.5C 51.678,53.655 53.5113,51.9884 55.5,50.5 Z"/></g>
<g><path style="opacity:0.08" fill="#fcecd6" d="M 188.5,53.5 C 191.167,53.5 193.833,53.5 196.5,53.5C 199.391,54.4025 202.391,54.7359 205.5,54.5C 205.5,54.8333 205.5,55.1667 205.5,55.5C 199.611,55.5503 193.944,54.8836 188.5,53.5 Z"/></g>
<g><path style="opacity:0.118" fill="#fbcdc2" d="M 258.5,50.5 C 258.262,52.4044 257.262,53.7377 255.5,54.5C 255.738,52.5956 256.738,51.2623 258.5,50.5 Z"/></g>
<g><path style="opacity:1" fill="#e3714c" d="M 304.5,48.5 C 307.423,50.1506 309.757,52.4839 311.5,55.5C 312.167,56.8333 313.167,57.8333 314.5,58.5C 314.672,59.4916 314.338,60.1583 313.5,60.5C 312.833,60.5 312.167,60.5 311.5,60.5C 311.579,59.0695 311.246,57.7362 310.5,56.5C 307.988,54.1089 305.988,51.4423 304.5,48.5 Z"/></g>
<g><path style="opacity:0.125" fill="#fde8d9" d="M 178.5,-0.5 C 178.833,-0.5 179.167,-0.5 179.5,-0.5C 179.667,17.5031 179.5,35.5031 179,53.5C 170.59,54.3081 162.257,55.6414 154,57.5C 149.144,56.4676 147.31,53.4676 148.5,48.5C 149.924,50.5145 150.59,52.8478 150.5,55.5C 153.545,55.4921 156.545,55.1587 159.5,54.5C 165.36,54.2832 171.027,53.6165 176.5,52.5C 178.486,35.1983 179.153,17.5316 178.5,-0.5 Z"/></g>
<g><path style="opacity:1" fill="#e3633e" d="M 176.5,52.5 C 171.027,53.6165 165.36,54.2832 159.5,54.5C 159.918,53.7784 160.584,53.2784 161.5,53C 166.489,52.5007 171.489,52.3341 176.5,52.5 Z"/></g>
<g><path style="opacity:1" fill="#e25737" d="M 215.5,52.5 C 215.833,55.5 214.5,56.8333 211.5,56.5C 209.735,55.5386 207.735,55.2053 205.5,55.5C 205.5,55.1667 205.5,54.8333 205.5,54.5C 209.083,54.7681 212.416,54.1014 215.5,52.5 Z"/></g>
<g><path style="opacity:0.71" fill="#f5baa3" d="M 107.5,55.5 C 109.982,56.6627 111.316,58.6627 111.5,61.5C 109.684,59.8816 108.351,57.8816 107.5,55.5 Z"/></g>
<g><path style="opacity:0.02" fill="#f9ead3" d="M 205.5,55.5 C 207.735,55.2053 209.735,55.5386 211.5,56.5C 210.178,56.33 209.011,56.6634 208,57.5C 207.005,56.9341 206.172,56.2674 205.5,55.5 Z"/></g>
<g><path style="opacity:0.027" fill="#fad3c2" d="M 311.5,55.5 C 313.5,55.5 314.5,56.5 314.5,58.5C 313.167,57.8333 312.167,56.8333 311.5,55.5 Z"/></g>
<g><path style="opacity:0.294" fill="#f2bea9" d="M 91.5,52.5 C 94.8152,55.1251 97.1486,58.4584 98.5,62.5C 95.6771,59.5249 93.3437,56.1916 91.5,52.5 Z"/></g>
<g><path style="opacity:0.2" fill="#f7e1d4" d="M 216.5,51.5 C 217.422,55.4825 215.922,57.8158 212,58.5C 211.536,57.9056 211.369,57.2389 211.5,56.5C 214.5,56.8333 215.833,55.5 215.5,52.5C 215.5,51.8333 215.833,51.5 216.5,51.5 Z"/></g>
<g><path style="opacity:0.369" fill="#f8c4b2" d="M 260.5,53.5 C 259.544,56.4386 257.877,58.772 255.5,60.5C 256.433,57.6298 258.1,55.2964 260.5,53.5 Z"/></g>
<g><path style="opacity:0.239" fill="#f4c9b8" d="M 51.5,58.5 C 52.8333,58.5 53.5,59.1667 53.5,60.5C 52.1667,60.5 51.5,59.8333 51.5,58.5 Z"/></g>
<g><path style="opacity:0.157" fill="#f3bfa3" d="M 253.5,55.5 C 253.833,55.5 254.167,55.5 254.5,55.5C 254.155,58.1979 252.822,60.1979 250.5,61.5C 251.044,59.2845 252.044,57.2845 253.5,55.5 Z"/></g>
<g><path style="opacity:0.49" fill="#f7c2b2" d="M 53.5,60.5 C 55.7488,61.0798 57.4154,62.4131 58.5,64.5C 56.2512,63.9202 54.5846,62.5869 53.5,60.5 Z"/></g>
<g><path style="opacity:0.016" fill="#faf2ef" d="M 137.5,61.5 C 138.833,62.1667 138.833,62.1667 137.5,61.5 Z"/></g>
<g><path style="opacity:0.333" fill="#f8cab7" d="M 221.5,54.5 C 221.286,56.1439 221.62,57.6439 222.5,59C 227.22,60.5928 231.553,62.7595 235.5,65.5C 231.168,63.8896 226.834,62.3896 222.5,61C 219.086,59.0856 218.753,56.9189 221.5,54.5 Z"/></g>
<g><path style="opacity:0.451" fill="#e9cdb6" d="M 255.5,60.5 C 255.573,62.0269 254.906,63.0269 253.5,63.5C 253.427,61.9731 254.094,60.9731 255.5,60.5 Z"/></g>
<g><path style="opacity:0.078" fill="#fee3ca" d="M 311.5,60.5 C 312.167,60.5 312.833,60.5 313.5,60.5C 312.965,62.4456 311.632,63.4456 309.5,63.5C 310.167,62.5 310.833,61.5 311.5,60.5 Z"/></g>
<g><path style="opacity:0.675" fill="#f8b8a6" d="M 135.5,60.5 C 130.819,62.7024 126.152,65.2024 121.5,68C 120.207,68.49 118.873,68.6567 117.5,68.5C 122.816,64.4975 128.816,61.8308 135.5,60.5 Z"/></g>
<g><path style="opacity:0.38" fill="#fdc6ae" d="M 98.5,62.5 C 99.9063,62.9731 100.573,63.9731 100.5,65.5C 99.0937,65.0269 98.427,64.0269 98.5,62.5 Z"/></g>
<g><path style="opacity:1" fill="#f49c7f" d="M 58.5,64.5 C 62.3751,65.2213 64.7084,67.5546 65.5,71.5C 62.5432,69.8424 60.2099,67.5091 58.5,64.5 Z"/></g>
<g><path style="opacity:1" fill="#f29582" d="M 112.5,63.5 C 114.842,64.5184 116.508,66.1851 117.5,68.5C 117.103,69.525 116.437,69.6917 115.5,69C 114.361,67.2196 113.361,65.3863 112.5,63.5 Z"/></g>
<g><path style="opacity:0.239" fill="#f9cbbb" d="M 252.5,65.5 C 251.974,67.2303 250.974,68.5637 249.5,69.5C 249.554,67.368 250.554,66.0347 252.5,65.5 Z"/></g>
<g><path style="opacity:0.984" fill="#f19173" d="M 309.5,63.5 C 308.167,65.5 306.5,67.1667 304.5,68.5C 303.833,68.5 303.167,68.5 302.5,68.5C 302.414,67.5041 302.748,66.6708 303.5,66C 305.628,65.3448 307.628,64.5114 309.5,63.5 Z"/></g>
<g><path style="opacity:0.357" fill="#fac0b6" d="M 100.5,65.5 C 101.906,65.9731 102.573,66.9731 102.5,68.5C 101.094,68.0269 100.427,67.0269 100.5,65.5 Z"/></g>
<g><path style="opacity:0.016" fill="#f5d2c1" d="M 250.5,61.5 C 249.18,64.1401 247.847,66.8068 246.5,69.5C 245.388,71.744 243.888,71.744 242,69.5C 241.667,69.8333 241.333,70.1667 241,70.5C 239.898,69.051 238.731,67.7177 237.5,66.5C 239.484,67.1557 241.484,67.8224 243.5,68.5C 246.059,66.3699 248.393,64.0366 250.5,61.5 Z"/></g>
<g><path style="opacity:0.008" fill="#f0faf4" d="M 246.5,69.5 C 247.167,69.5 247.5,69.8333 247.5,70.5C 247.167,70.1667 246.833,69.8333 246.5,69.5 Z"/></g>
<g><path style="opacity:0.004" fill="#f8c1aa" d="M 43.5,70.5 C 47.1463,72.4819 50.1463,75.1485 52.5,78.5C 48.9408,76.6159 45.9408,73.9492 43.5,70.5 Z"/></g>
<g><path style="opacity:0.337" fill="#f3bea7" d="M 102.5,68.5 C 103.906,68.9731 104.573,69.9731 104.5,71.5C 103.094,71.0269 102.427,70.0269 102.5,68.5 Z"/></g>
<g><path style="opacity:0.616" fill="#efb1a3" d="M 65.5,71.5 C 67.0269,71.427 68.0269,72.0937 68.5,73.5C 66.9731,73.573 65.9731,72.9063 65.5,71.5 Z"/></g>
<g><path style="opacity:0.29" fill="#fad2c4" d="M 249.5,69.5 C 249.392,71.5138 250.058,73.1805 251.5,74.5C 249.167,74.1667 247.833,72.8333 247.5,70.5C 248.167,70.1667 248.833,69.8333 249.5,69.5 Z"/></g>
<g><path style="opacity:0.039" fill="#fbd0bc" d="M 302.5,68.5 C 303.167,68.5 303.833,68.5 304.5,68.5C 300.413,72.9225 295.746,76.5892 290.5,79.5C 294.417,75.8521 298.417,72.1854 302.5,68.5 Z"/></g>
<g><path style="opacity:0.451" fill="#f2c0aa" d="M 104.5,71.5 C 105.947,72.6222 106.947,74.1222 107.5,76C 106.906,76.4643 106.239,76.631 105.5,76.5C 105.371,74.7839 105.038,73.1172 104.5,71.5 Z"/></g>
<g><path style="opacity:0.502" fill="#f2b8a6" d="M 43.5,70.5 C 42.2618,69.5876 40.9285,69.4209 39.5,70C 37.3024,73.0228 34.969,75.8562 32.5,78.5C 33.8539,74.9683 35.8539,71.8016 38.5,69C 39.3333,68.8333 40.1667,68.6667 41,68.5C 42.3756,68.6842 43.2089,69.3509 43.5,70.5 Z"/></g>
<g><path style="opacity:0.525" fill="#f7ccae" d="M 68.5,74.5 C 70.7488,75.0798 72.4154,76.4131 73.5,78.5C 71.2512,77.9202 69.5846,76.5869 68.5,74.5 Z"/></g>
<g><path style="opacity:1" fill="#f63f14" d="M 43.5,70.5 C 45.9408,73.9492 48.9408,76.6159 52.5,78.5C 53.8908,80.8903 55.8908,82.5569 58.5,83.5C 61.5845,86.2501 64.5845,89.2501 67.5,92.5C 68.8599,93.1799 70.1932,93.8466 71.5,94.5C 73.6009,97.1049 75.9342,99.6049 78.5,102C 75.2566,107.064 72.2566,112.231 69.5,117.5C 68.5,118.167 67.5,118.833 66.5,119.5C 63.9963,118.361 61.3297,117.694 58.5,117.5C 57.5084,117.672 56.8417,117.338 56.5,116.5C 55.713,114.896 54.3797,114.229 52.5,114.5C 51.5994,112.273 49.9328,111.273 47.5,111.5C 46.3126,109.025 44.3126,108.025 41.5,108.5C 41.0269,107.094 40.0269,106.427 38.5,106.5C 38.0269,105.094 37.0269,104.427 35.5,104.5C 34.209,104.737 33.209,104.404 32.5,103.5C 32.0269,102.094 31.0269,101.427 29.5,101.5C 29.5,100.833 29.1667,100.5 28.5,100.5C 28.3059,98.0882 26.9726,97.0882 24.5,97.5C 24.5,95.8333 24.5,94.1667 24.5,92.5C 24.8333,91.1667 25.1667,89.8333 25.5,88.5C 25.3284,87.5084 25.6618,86.8417 26.5,86.5C 28.984,84.1997 30.984,81.5331 32.5,78.5C 34.969,75.8562 37.3024,73.0228 39.5,70C 40.9285,69.4209 42.2618,69.5876 43.5,70.5 Z"/></g>
<g><path style="opacity:0.22" fill="#f7c1af" d="M 52.5,78.5 C 55.135,79.4735 57.135,81.1402 58.5,83.5C 55.8908,82.5569 53.8908,80.8903 52.5,78.5 Z"/></g>
<g><path style="opacity:0.02" fill="#fac2ab" d="M 251.5,74.5 C 253.558,75.9331 255.892,76.5997 258.5,76.5C 258.281,77.675 258.614,78.675 259.5,79.5C 261.521,80.8545 263.188,82.5212 264.5,84.5C 259.876,81.5426 255.543,78.2093 251.5,74.5 Z"/></g>
<g><path style="opacity:0.145" fill="#f8cab1" d="M 32.5,78.5 C 30.984,81.5331 28.984,84.1997 26.5,86.5C 27.5293,83.1092 29.5293,80.4426 32.5,78.5 Z"/></g>
<g><path style="opacity:0.031" fill="#fcddc8" d="M 105.5,76.5 C 102.461,79.5398 99.1274,82.2065 95.5,84.5C 97.9626,80.6998 101.296,78.0332 105.5,76.5 Z"/></g>
<g><path style="opacity:0.329" fill="#f9c5ae" d="M 58.5,83.5 C 63.7638,86.0995 68.0971,89.7661 71.5,94.5C 70.1932,93.8466 68.8599,93.1799 67.5,92.5C 64.5845,89.2501 61.5845,86.2501 58.5,83.5 Z"/></g>
<g><path style="opacity:0.008" fill="#facfbd" d="M 264.5,84.5 C 266.516,85.4564 268.349,86.7898 270,88.5C 270.464,89.0944 270.631,89.7611 270.5,90.5C 267.833,89.1667 265.833,87.1667 264.5,84.5 Z"/></g>
<g><path style="opacity:0.02" fill="#fbdbc6" d="M 290.5,79.5 C 286.391,84.9476 281.391,89.2809 275.5,92.5C 279.878,87.4554 284.878,83.1221 290.5,79.5 Z"/></g>
<g><path style="opacity:0.318" fill="#facdb6" d="M 25.5,88.5 C 25.1667,89.8333 24.8333,91.1667 24.5,92.5C 23.8333,92.8333 23.1667,93.1667 22.5,93.5C 22.7497,91.326 23.7497,89.6594 25.5,88.5 Z"/></g>
<g><path style="opacity:0.22" fill="#facdbe" d="M 73.5,78.5 C 78.422,82.0801 83.0887,86.0801 87.5,90.5C 89.921,88.0663 92.5877,86.0663 95.5,84.5C 93.8564,86.4807 92.1897,88.4807 90.5,90.5C 88.9017,91.4847 87.235,91.6514 85.5,91C 81.2964,86.9644 77.2964,82.7978 73.5,78.5 Z"/></g>
<g><path style="opacity:0.004" fill="#f9d4c9" d="M 270.5,90.5 C 272.011,91.5025 273.678,92.1692 275.5,92.5C 273.21,93.8668 271.544,93.2002 270.5,90.5 Z"/></g>
<g><path style="opacity:0.416" fill="#f0ccbd" d="M 22.5,93.5 C 22.366,95.2915 22.6993,96.9582 23.5,98.5C 20.028,97.4228 19.6947,95.7561 22.5,93.5 Z"/></g>
<g><path style="opacity:1" fill="#e45835" d="M 24.5,92.5 C 24.5,94.1667 24.5,95.8333 24.5,97.5C 26.9726,97.0882 28.3059,98.0882 28.5,100.5C 26.9891,99.4975 25.3224,98.8308 23.5,98.5C 22.6993,96.9582 22.366,95.2915 22.5,93.5C 23.1667,93.1667 23.8333,92.8333 24.5,92.5 Z"/></g>
<g><path style="opacity:0.027" fill="#fce5d7" d="M 23.5,98.5 C 25.3224,98.8308 26.9891,99.4975 28.5,100.5C 29.1667,100.5 29.5,100.833 29.5,101.5C 26.6874,101.975 24.6874,100.975 23.5,98.5 Z"/></g>
<g><path style="opacity:0.251" fill="#fbdac6" d="M 29.5,101.5 C 31.0269,101.427 32.0269,102.094 32.5,103.5C 30.9731,103.573 29.9731,102.906 29.5,101.5 Z"/></g>
<g><path style="opacity:0.408" fill="#f2c2b0" d="M 71.5,94.5 C 74.9801,96.485 77.9801,98.985 80.5,102C 77.1727,107.519 73.506,112.686 69.5,117.5C 72.2566,112.231 75.2566,107.064 78.5,102C 75.9342,99.6049 73.6009,97.1049 71.5,94.5 Z"/></g>
<g><path style="opacity:0.333" fill="#f5c7aa" d="M 35.5,104.5 C 37.0269,104.427 38.0269,105.094 38.5,106.5C 36.9731,106.573 35.9731,105.906 35.5,104.5 Z"/></g>
<g><path style="opacity:0.235" fill="#fbd1c2" d="M 38.5,106.5 C 40.0269,106.427 41.0269,107.094 41.5,108.5C 39.9731,108.573 38.9731,107.906 38.5,106.5 Z"/></g>
<g><path style="opacity:0.843" fill="#f0a78f" d="M 41.5,108.5 C 44.3126,108.025 46.3126,109.025 47.5,111.5C 45.4561,110.492 43.4561,109.492 41.5,108.5 Z"/></g>
<g><path style="opacity:0.376" fill="#fbc6b3" d="M 47.5,111.5 C 49.9328,111.273 51.5994,112.273 52.5,114.5C 50.5659,113.89 48.8993,112.89 47.5,111.5 Z"/></g>
<g><path style="opacity:0.557" fill="#f3b6a2" d="M 21.5,115.5 C 18.9333,115.145 16.4333,114.479 14,113.5C 12.8615,113.989 11.6948,114.322 10.5,114.5C 10.5,113.5 10.5,112.5 10.5,111.5C 14.733,111.457 18.3996,112.79 21.5,115.5 Z"/></g>
<g><path style="opacity:0.29" fill="#f7c4b3" d="M 52.5,114.5 C 54.3797,114.229 55.713,114.896 56.5,116.5C 54.847,116.34 53.5137,115.674 52.5,114.5 Z"/></g>
<g><path style="opacity:0.667" fill="#ecb29d" d="M 10.5,115.5 C 10.554,118.992 9.55396,121.992 7.5,124.5C 7.92809,121.215 8.92809,118.215 10.5,115.5 Z"/></g>
<g><path style="opacity:0.98" fill="#eea289" d="M 21.5,115.5 C 27.2296,117.071 32.563,119.404 37.5,122.5C 31.5348,121.359 26.2014,119.026 21.5,115.5 Z"/></g>
<g><path style="opacity:0.878" fill="#e8937a" d="M 58.5,117.5 C 61.3297,117.694 63.9963,118.361 66.5,119.5C 65.791,120.404 64.791,120.737 63.5,120.5C 61.326,120.25 59.6594,119.25 58.5,117.5 Z"/></g>
<g><path style="opacity:0.263" fill="#f8d7cd" d="M 69.5,117.5 C 69.0062,122.397 67.0062,123.397 63.5,120.5C 64.791,120.737 65.791,120.404 66.5,119.5C 67.5,118.833 68.5,118.167 69.5,117.5 Z"/></g>
<g><path style="opacity:0.039" fill="#fafbfa" d="M 726.5,122.5 C 727.833,123.167 727.833,123.167 726.5,122.5 Z"/></g>
<g><path style="opacity:0.329" fill="#facbaf" d="M 37.5,122.5 C 39.5529,122.402 41.2196,123.069 42.5,124.5C 40.4471,124.598 38.7804,123.931 37.5,122.5 Z"/></g>
<g><path style="opacity:0.995" fill="#fcfcfc" d="M 148.5,126.5 C 147.482,144.822 147.315,163.155 148,181.5C 148.716,183.879 149.883,185.879 151.5,187.5C 152.262,189.262 153.596,190.262 155.5,190.5C 157.291,191.391 159.124,192.391 161,193.5C 163.496,192.901 165.996,193.235 168.5,194.5C 169.946,196.58 170.946,198.913 171.5,201.5C 170.381,203.462 168.048,205.128 164.5,206.5C 163.808,205.975 163.308,205.308 163,204.5C 161.667,207.167 160.333,207.167 159,204.5C 158.439,205.022 157.772,205.355 157,205.5C 153.15,203.722 149.316,202.055 145.5,200.5C 145.167,199.167 144.833,199.167 144.5,200.5C 143.194,198.527 141.527,196.861 139.5,195.5C 138.525,193.205 137.192,191.205 135.5,189.5C 135.423,188.25 134.756,187.417 133.5,187C 134.252,186.329 134.586,185.496 134.5,184.5C 135.332,165.671 135.832,146.671 136,127.5C 136.513,126.473 137.013,125.473 137.5,124.5C 137.369,123.761 137.536,123.094 138,122.5C 141.97,122.791 145.47,124.124 148.5,126.5 Z"/></g>
<g><path style="opacity:0.999" fill="#f9f9f9" d="M 307.5,146.5 C 309.812,147.341 312.145,148.341 314.5,149.5C 314.842,150.338 315.508,150.672 316.5,150.5C 318.833,152.833 321.167,155.167 323.5,157.5C 323.574,159.411 324.574,160.578 326.5,161C 326.494,175.226 326.494,189.393 326.5,203.5C 325.25,203.577 324.417,204.244 324,205.5C 321.712,205.263 319.212,205.263 316.5,205.5C 316.167,204.167 315.833,204.167 315.5,205.5C 314.422,203.461 313.422,201.294 312.5,199C 313.651,189.244 313.818,179.411 313,169.5C 312.044,166.623 310.711,163.956 309,161.5C 307.67,160.418 306.17,159.751 304.5,159.5C 304.167,158.167 303.833,158.167 303.5,159.5C 301.621,159.607 301.288,159.107 302.5,158C 300.833,157.833 299.167,157.667 297.5,157.5C 295.359,157.613 293.525,158.28 292,159.5C 291.667,159.167 291.333,158.833 291,158.5C 290.641,161.544 289.974,161.878 289,159.5C 287.034,160.78 285.534,162.447 284.5,164.5C 283.265,177.024 281.931,189.858 280.5,203C 280.833,203.333 281.167,203.667 281.5,204C 279.447,205.08 277.28,205.914 275,206.5C 274.259,205.359 273.425,205.359 272.5,206.5C 271.304,206.154 271.304,205.654 272.5,205C 271.906,204.536 271.239,204.369 270.5,204.5C 269.071,203.766 268.071,202.599 267.5,201C 268.66,175.785 268.827,150.618 268,125.5C 268.333,125.833 268.667,126.167 269,126.5C 270,125.167 271,123.833 272,122.5C 275.349,122.999 278.516,123.999 281.5,125.5C 282.136,133.14 282.803,140.807 283.5,148.5C 284.281,147.271 284.781,145.938 285,144.5C 285.249,145.624 285.749,146.624 286.5,147.5C 287.696,147.154 287.696,146.654 286.5,146C 287.549,145.508 288.549,145.674 289.5,146.5C 289.833,145.833 290.167,145.167 290.5,144.5C 295.364,145.812 300.197,145.812 305,144.5C 305.417,145.756 306.25,146.423 307.5,146.5 Z"/></g>
<g><path style="opacity:0.024" fill="#f9faf9" d="M 283.5,124.5 C 284.833,125.167 284.833,125.167 283.5,124.5 Z"/></g>
<g><path style="opacity:0.063" fill="#f8f9f8" d="M 334.5,124.5 C 335.833,125.167 335.833,125.167 334.5,124.5 Z"/></g>
<g><path style="opacity:1" fill="#fbfbfb" d="M 350.5,182.5 C 349.999,184.129 349.999,185.629 350.5,187C 351.253,188.487 352.086,188.654 353,187.5C 356.27,191.854 361.104,193.854 367.5,193.5C 367.833,194.5 368.5,195.167 369.5,195.5C 371.432,197.663 371.765,199.997 370.5,202.5C 369.833,202.5 369.5,202.833 369.5,203.5C 368.526,204.635 367.359,205.635 366,206.5C 363.333,206.5 360.667,206.5 358,206.5C 350.167,203.439 343,198.606 336.5,192C 337.287,190.687 336.954,189.52 335.5,188.5C 335.746,171.062 335.412,153.562 334.5,136C 335.13,131.79 335.964,127.623 337,123.5C 337.333,123.833 337.667,124.167 338,124.5C 340.461,123.782 342.961,123.115 345.5,122.5C 345.109,123.891 345.942,124.891 348,125.5C 349.245,131.39 349.912,137.39 350,143.5C 352.096,144.715 351.929,145.549 349.5,146C 352.76,146.784 355.927,146.617 359,145.5C 366.752,149.171 367.418,153.837 361,159.5C 357.27,158.54 353.437,158.207 349.5,158.5C 349.199,166.586 349.533,174.586 350.5,182.5 Z"/></g>
<g><path style="opacity:0.008" fill="#fbfcfb" d="M 717.5,124.5 C 718.833,125.167 718.833,125.167 717.5,124.5 Z"/></g>
<g><path style="opacity:0.999" fill="#fbfbfb" d="M 726.5,123.5 C 726.5,123.833 726.5,124.167 726.5,124.5C 727.688,125.364 728.855,126.364 730,127.5C 730.168,152.67 730.668,177.67 731.5,202.5C 731.5,202.833 731.5,203.167 731.5,203.5C 730.833,204.167 730.167,204.833 729.5,205.5C 729.167,204.167 728.833,204.167 728.5,205.5C 724.727,205.737 721.06,205.237 717.5,204C 718.696,203.346 718.696,202.846 717.5,202.5C 716.449,203.885 715.116,204.885 713.5,205.5C 706.673,205.574 699.673,205.407 692.5,205C 690.235,203.882 687.901,203.049 685.5,202.5C 681.052,198.883 677.052,194.716 673.5,190C 673.425,181.978 673.592,173.811 674,165.5C 674.505,163.482 675.005,161.482 675.5,159.5C 677.063,158.055 678.396,156.389 679.5,154.5C 681.01,153.164 682.677,151.997 684.5,151C 683.66,149.334 684.16,149.167 686,150.5C 688.456,148.789 691.123,147.456 694,146.5C 694.333,146.833 694.667,147.167 695,147.5C 697.333,146.833 699.667,146.167 702,145.5C 706.83,146.617 711.663,147.451 716.5,148C 717.314,141.247 717.814,134.414 718,127.5C 719.044,126.377 719.71,125.044 720,123.5C 721.9,122.586 724.066,122.586 726.5,123.5 Z M 710.5,160.5 C 712.833,160.833 714.167,162.167 714.5,164.5C 715.79,165.058 716.623,166.058 717,167.5C 717.83,173.196 717.663,178.863 716.5,184.5C 715.452,185.548 714.452,186.548 713.5,187.5C 712.167,188.167 712.167,188.833 713.5,189.5C 712.811,190.774 711.977,190.774 711,189.5C 710.002,191.921 708.168,193.255 705.5,193.5C 702.645,193.278 699.645,193.111 696.5,193C 694.569,192.098 692.903,190.931 691.5,189.5C 692.547,188.922 692.38,188.256 691,187.5C 690.601,187.728 690.435,188.062 690.5,188.5C 688.933,187.319 688.099,185.653 688,183.5C 687.03,177.29 687.53,171.29 689.5,165.5C 691.105,164.994 691.439,164.327 690.5,163.5C 690.833,162.5 691.5,161.833 692.5,161.5C 692.833,162.833 693.167,162.833 693.5,161.5C 694.031,160.205 695.364,159.538 697.5,159.5C 697.56,160.043 697.893,160.376 698.5,160.5C 699.27,158.728 700.603,157.728 702.5,157.5C 705.584,158.68 708.251,159.68 710.5,160.5 Z M 713.5,187.5 C 715.933,187.786 715.933,188.452 713.5,189.5C 713.5,188.833 713.5,188.167 713.5,187.5 Z"/></g>
<g><path style="opacity:1" fill="#f74015" d="M 21.5,115.5 C 26.2014,119.026 31.5348,121.359 37.5,122.5C 38.7804,123.931 40.4471,124.598 42.5,124.5C 45.248,126.601 48.248,128.434 51.5,130C 53.8127,130.662 56.146,131.162 58.5,131.5C 58.5,133.5 58.5,135.5 58.5,137.5C 56.4111,141.501 55.0777,145.835 54.5,150.5C 52.5,150.5 50.5,150.5 48.5,150.5C 45.0611,150.212 41.7278,149.546 38.5,148.5C 35.4557,146.989 32.1224,146.322 28.5,146.5C 26.0392,145.469 23.3725,144.802 20.5,144.5C 19.8333,144.5 19.1667,144.5 18.5,144.5C 13.752,142.862 8.75198,141.862 3.5,141.5C 5.24728,135.926 6.58061,130.259 7.5,124.5C 9.55396,121.992 10.554,118.992 10.5,115.5C 10.5,115.167 10.5,114.833 10.5,114.5C 11.6948,114.322 12.8615,113.989 14,113.5C 16.4333,114.479 18.9333,115.145 21.5,115.5 Z"/></g>
<g><path style="opacity:0.647" fill="#f3ae99" d="M 42.5,124.5 C 48.4434,126.703 54.4434,128.703 60.5,130.5C 60.5905,133.152 59.9238,135.485 58.5,137.5C 58.5,135.5 58.5,133.5 58.5,131.5C 56.146,131.162 53.8127,130.662 51.5,130C 48.248,128.434 45.248,126.601 42.5,124.5 Z"/></g>
<g><path style="opacity:0.016" fill="#fbfcfb" d="M 134.5,126.5 C 133.833,125.167 133.833,125.167 134.5,126.5 Z"/></g>
<g><path style="opacity:0.016" fill="#fbfcfb" d="M 148.5,125.5 C 149.833,126.167 149.833,126.167 148.5,125.5 Z"/></g>
<g><path style="opacity:0.648" fill="#dbdbdb" d="M 137.5,124.5 C 137.013,125.473 136.513,126.473 136,127.5C 135.832,146.671 135.332,165.671 134.5,184.5C 134.5,165.167 134.5,145.833 134.5,126.5C 135.222,125.449 136.222,124.782 137.5,124.5 Z"/></g>
<g><path style="opacity:0.992" fill="#f8f8f8" d="M 186.5,141.5 C 183.748,141.578 181.082,141.745 178.5,142C 178.833,141.667 179.167,141.333 179.5,141C 176.558,140.06 175.225,138.06 175.5,135C 175.395,132.822 176.061,130.988 177.5,129.5C 185.824,125.788 190.491,128.788 191.5,138.5C 189.79,138.759 188.123,139.759 186.5,141.5 Z"/></g>
<g><path style="opacity:0.753" fill="#faccb2" d="M 7.5,124.5 C 6.58061,130.259 5.24728,135.926 3.5,141.5C 2.87605,141.083 2.54272,140.416 2.5,139.5C 4.00334,134.323 5.67,129.323 7.5,124.5 Z"/></g>
<g><path style="opacity:0.106" fill="#f6f7f6" d="M 177.5,129.5 C 176.833,128.167 176.833,128.167 177.5,129.5 Z"/></g>
<g><path style="opacity:0.016" fill="#f8f9f8" d="M 190.5,128.5 C 191.833,129.167 191.833,129.167 190.5,128.5 Z"/></g>
<g><path style="opacity:0.031" fill="#fbfbfb" d="M 149.5,129.5 C 150.598,130.601 150.765,131.934 150,133.5C 149.51,132.207 149.343,130.873 149.5,129.5 Z"/></g>
<g><path style="opacity:0.055" fill="#f8f9f8" d="M 190.5,140.5 C 191.833,141.167 191.833,141.167 190.5,140.5 Z"/></g>
<g><path style="opacity:0.078" fill="#f7f8f7" d="M 176.5,141.5 C 177.833,142.167 177.833,142.167 176.5,141.5 Z"/></g>
<g><path style="opacity:0.016" fill="#fcfdfc" d="M 186.5,141.5 C 187.833,142.167 187.833,142.167 186.5,141.5 Z"/></g>
<g><path style="opacity:0.098" fill="#f6f7f6" d="M 190.5,141.5 C 189.833,142.167 189.833,142.167 190.5,141.5 Z"/></g>
<g><path style="opacity:0.275" fill="#fad2c0" d="M 3.5,141.5 C 8.75198,141.862 13.752,142.862 18.5,144.5C 13.8228,144.165 9.15609,143.665 4.5,143C 3.94404,142.617 3.61071,142.117 3.5,141.5 Z"/></g>
<g><path style="opacity:0.024" fill="#fcfdfc" d="M 182.5,144.5 C 182.897,143.475 183.563,143.308 184.5,144C 183.906,144.464 183.239,144.631 182.5,144.5 Z"/></g>
<g><path style="opacity:0.008" fill="#fbfcfb" d="M 299.5,143.5 C 300.833,144.167 300.833,144.167 299.5,143.5 Z"/></g>
<g><path style="opacity:0.016" fill="#f9faf9" d="M 235.5,144.5 C 236.833,145.167 236.833,145.167 235.5,144.5 Z"/></g>
<g><path style="opacity:0.09" fill="#f9f9f9" d="M 253.5,145.5 C 253.897,144.475 254.563,144.308 255.5,145C 254.906,145.464 254.239,145.631 253.5,145.5 Z"/></g>
<g><path style="opacity:0.035" fill="#fafafa" d="M 611.5,145.5 C 611.897,144.475 612.563,144.308 613.5,145C 612.906,145.464 612.239,145.631 611.5,145.5 Z"/></g>
<g><path style="opacity:0.98" fill="#fbfbfb" d="M 665.5,169.5 C 664.167,170.167 664.167,170.833 665.5,171.5C 665.715,181.435 665.381,191.101 664.5,200.5C 665.167,200.833 665.833,201.167 666.5,201.5C 665.23,202.288 664.23,203.288 663.5,204.5C 662.778,204.918 662.278,205.584 662,206.5C 659.281,205.556 656.448,205.223 653.5,205.5C 653.217,204.711 652.717,204.044 652,203.5C 651.921,190.777 651.254,178.111 650,165.5C 645.756,160.638 640.256,158.305 633.5,158.5C 631.214,158.595 629.214,159.262 627.5,160.5C 625.5,161.167 624.167,162.5 623.5,164.5C 622.833,164.5 622.5,164.833 622.5,165.5C 621.167,165.833 621.167,166.167 622.5,166.5C 622.607,168.379 622.107,168.712 621,167.5C 620.667,179.167 620.333,190.833 620,202.5C 619.302,203.691 618.469,204.691 617.5,205.5C 613.089,206.34 609.423,205.173 606.5,202C 607.658,185.574 607.824,169.074 607,152.5C 606.5,152 606,151.5 605.5,151C 608.217,147.724 611.717,145.891 616,145.5C 621.885,149.098 627.719,148.765 633.5,144.5C 639.383,146.182 645.383,147.682 651.5,149C 654.616,150.449 657.116,152.616 659,155.5C 659.333,155.167 659.667,154.833 660,154.5C 661.113,155.76 661.28,156.927 660.5,158C 661.5,158.333 662.5,158.667 663.5,159C 663.167,159.333 662.833,159.667 662.5,160C 663.975,163.021 664.975,166.188 665.5,169.5 Z"/></g>
<g><path style="opacity:0.042" fill="#f8f8f8" d="M 635.5,145.5 C 636.601,144.402 637.934,144.235 639.5,145C 638.207,145.49 636.873,145.657 635.5,145.5 Z"/></g>
<g><path style="opacity:0.008" fill="#fbfcfb" d="M 697.5,144.5 C 698.833,145.167 698.833,145.167 697.5,144.5 Z"/></g>
<g><path style="opacity:0.027" fill="#f9faf9" d="M 703.5,145.5 C 703.897,144.475 704.563,144.308 705.5,145C 704.906,145.464 704.239,145.631 703.5,145.5 Z"/></g>
<g><path style="opacity:0.859" fill="#d6d6d6" d="M 726.5,124.5 C 728.514,124.392 730.18,125.058 731.5,126.5C 731.5,151.833 731.5,177.167 731.5,202.5C 730.668,177.67 730.168,152.67 730,127.5C 728.855,126.364 727.688,125.364 726.5,124.5 Z"/></g>
<g><path style="opacity:0.047" fill="#fddcd0" d="M 20.5,144.5 C 23.3725,144.802 26.0392,145.469 28.5,146.5C 25.4467,146.889 22.78,146.223 20.5,144.5 Z"/></g>
<g><path style="opacity:1" fill="#fbfbfb" d="M 253.5,145.5 C 254.167,146.167 254.833,146.833 255.5,147.5C 255.783,148.289 256.283,148.956 257,149.5C 257.667,169.833 257.667,190.167 257,210.5C 253.645,217.687 248.478,223.021 241.5,226.5C 241.607,228.379 241.107,228.712 240,227.5C 237.931,228.264 235.764,228.764 233.5,229C 234.706,230.018 234.373,230.518 232.5,230.5C 231.167,229.833 229.833,229.167 228.5,228.5C 225.657,228.886 222.657,228.886 219.5,228.5C 217.75,227.13 215.75,226.13 213.5,225.5C 213.158,224.662 212.492,224.328 211.5,224.5C 211.167,223.167 210.833,223.167 210.5,224.5C 209.9,223.1 208.9,222.1 207.5,221.5C 205.262,213.323 208.595,210.156 217.5,212C 218.471,213.481 219.804,214.315 221.5,214.5C 227.382,217.694 233.382,217.528 239.5,214C 243.462,211.066 244.962,207.233 244,202.5C 243.641,205.544 242.974,205.878 242,203.5C 241.692,204.308 241.192,204.975 240.5,205.5C 239.549,204.674 238.549,204.508 237.5,205C 238.696,205.654 238.696,206.154 237.5,206.5C 231.885,205.711 226.218,205.211 220.5,205C 216.103,203.471 212.436,201.637 209.5,199.5C 208.71,198.599 207.71,197.932 206.5,197.5C 205.679,194.694 204.012,192.527 201.5,191C 201.833,190.667 202.167,190.333 202.5,190C 201.872,187.2 200.872,184.533 199.5,182C 200.126,174.477 201.126,166.977 202.5,159.5C 204.5,158.357 205.167,156.857 204.5,155C 205.737,154.768 206.737,154.268 207.5,153.5C 210.017,152.107 211.684,150.107 212.5,147.5C 213.93,147.421 215.264,147.754 216.5,148.5C 225.355,144.537 234.188,144.537 243,148.5C 244.324,147.12 245.657,146.786 247,147.5C 248.897,145.984 251.064,145.317 253.5,145.5 Z M 241.5,187.5 C 240.167,187.833 240.167,188.167 241.5,188.5C 238.641,189.158 236.308,190.658 234.5,193C 228.732,194.225 223.399,193.225 218.5,190C 219.167,189.667 219.833,189.333 220.5,189C 219.167,188.667 217.833,188.333 216.5,188C 216.833,187.667 217.167,187.333 217.5,187C 216.584,186.626 215.75,186.126 215,185.5C 214.333,179.167 214.333,172.833 215,166.5C 215.708,165.619 216.542,164.953 217.5,164.5C 217.427,162.973 218.094,161.973 219.5,161.5C 220.514,160.326 221.847,159.66 223.5,159.5C 226.519,157.663 229.852,157.163 233.5,158C 232.66,159.666 233.16,159.833 235,158.5C 240.364,160.529 243.53,164.363 244.5,170C 244.42,174.68 244.42,179.346 244.5,184C 243.929,185.599 242.929,186.766 241.5,187.5 Z"/></g>
<g><path style="opacity:0.008" fill="#fbfcfb" d="M 307.5,145.5 C 308.833,146.167 308.833,146.167 307.5,145.5 Z"/></g>
<g><path style="opacity:0.996" fill="#fbfbfb" d="M 592.5,147.5 C 592.783,148.289 593.283,148.956 594,149.5C 594.667,166.833 594.667,184.167 594,201.5C 590.38,205.487 586.713,205.487 583,201.5C 582.601,201.728 582.435,202.062 582.5,202.5C 579.833,202.833 579.833,203.167 582.5,203.5C 582.5,203.833 582.5,204.167 582.5,204.5C 581.12,205.706 579.953,205.373 579,203.5C 578.692,204.308 578.192,204.975 577.5,205.5C 576.313,204.347 575.313,204.347 574.5,205.5C 569.57,205.197 564.737,205.531 560,206.5C 556.055,204.783 551.888,202.783 547.5,200.5C 540.454,195.408 536.788,188.408 536.5,179.5C 536.784,169.117 537.284,158.783 538,148.5C 543.585,144.163 547.919,144.497 551,149.5C 550.882,161.346 551.715,173.012 553.5,184.5C 552.391,186.214 553.058,186.881 555.5,186.5C 555.238,187.978 555.571,189.311 556.5,190.5C 566.539,196.016 574.706,194.016 581,184.5C 581.812,172.787 581.645,161.12 580.5,149.5C 582.377,148.94 584.377,147.773 586.5,146C 587.5,145.833 588.5,145.667 589.5,145.5C 591.03,145.64 592.03,146.307 592.5,147.5 Z"/></g>
<g><path style="opacity:0.176" fill="#f8d5be" d="M 58.5,137.5 C 57.6868,141.809 56.8535,146.143 56,150.5C 53.5915,152.457 51.0915,152.457 48.5,150.5C 50.5,150.5 52.5,150.5 54.5,150.5C 55.0777,145.835 56.4111,141.501 58.5,137.5 Z"/></g>
<g><path style="opacity:0.024" fill="#fcfdfc" d="M 177.5,147.5 C 176.833,146.167 176.833,146.167 177.5,147.5 Z"/></g>
<g><path style="opacity:0.997" fill="#fcfcfc" d="M 190.5,148.5 C 189.167,149.167 189.167,149.833 190.5,150.5C 190.611,151.117 190.944,151.617 191.5,152C 190.342,153.009 189.675,154.342 189.5,156C 189.555,169.357 189.555,182.69 189.5,196C 190.308,196.308 190.975,196.808 191.5,197.5C 190.826,199.195 190.159,200.862 189.5,202.5C 188.5,202.833 187.833,203.5 187.5,204.5C 186.313,205.432 184.98,205.432 183.5,204.5C 182.328,204.919 181.328,205.585 180.5,206.5C 179.304,206.154 179.304,205.654 180.5,205C 179.473,204.487 178.473,203.987 177.5,203.5C 177.217,202.711 176.717,202.044 176,201.5C 175.833,197 175.667,192.5 175.5,188C 175.757,174.696 176.424,161.196 177.5,147.5C 178.232,146.192 179.066,144.858 180,143.5C 182.152,145.816 184.652,146.15 187.5,144.5C 187.911,145.262 188.077,146.262 188,147.5C 189.461,146.117 190.294,146.451 190.5,148.5 Z"/></g>
<g><path style="opacity:0.995" fill="#fafafa" d="M 458.5,157.5 C 458.5,157.833 458.5,158.167 458.5,158.5C 456.827,161.167 454.493,163.167 451.5,164.5C 447.208,163.351 443.541,161.185 440.5,158C 437.961,157.204 435.628,157.371 433.5,158.5C 432.691,160.028 432.024,161.694 431.5,163.5C 430.167,163.833 430.167,164.167 431.5,164.5C 431.953,165.458 432.619,166.292 433.5,167C 439.742,167.055 445.742,168.222 451.5,170.5C 453.142,171.803 454.809,173.136 456.5,174.5C 457.5,175.5 458.5,176.5 459.5,177.5C 459.574,179.411 460.574,180.578 462.5,181C 463.425,190.652 459.758,197.819 451.5,202.5C 450.508,202.328 449.842,202.662 449.5,203.5C 448.778,203.918 448.278,204.584 448,205.5C 446.384,204.199 444.884,204.199 443.5,205.5C 437.874,205.301 432.374,205.301 427,205.5C 424.872,203.192 422.372,201.526 419.5,200.5C 419.167,199.167 418.833,199.167 418.5,200.5C 410.134,190.521 412.467,186.021 425.5,187C 427.667,187.833 429.167,189.333 430,191.5C 430.333,191.167 430.667,190.833 431,190.5C 432.255,192.594 434.088,193.594 436.5,193.5C 439.455,193.013 442.121,192.013 444.5,190.5C 447.057,187.399 446.723,184.399 443.5,181.5C 440.333,181.717 437.166,181.05 434,179.5C 433.055,179.905 432.388,180.572 432,181.5C 430.742,178.945 428.909,178.278 426.5,179.5C 425.304,179.154 425.304,178.654 426.5,178C 425.906,177.536 425.239,177.369 424.5,177.5C 419.748,174.651 416.415,170.651 414.5,165.5C 414.179,164.183 413.846,162.849 413.5,161.5C 415.001,160.642 416.001,158.808 416.5,156C 416.167,155.667 415.833,155.333 415.5,155C 417.679,154.558 418.345,153.558 417.5,152C 418.253,150.513 419.086,150.346 420,151.5C 421.385,150.449 422.385,149.116 423,147.5C 425.453,147.941 427.953,147.441 430.5,146C 429.304,145.346 429.304,144.846 430.5,144.5C 435.364,145.812 440.197,145.812 445,144.5C 446.915,146.878 449.415,148.378 452.5,149C 455.601,151.234 457.601,154.067 458.5,157.5 Z"/></g>
<g><path style="opacity:0.998" fill="#fafafa" d="M 515.5,148.5 C 521.219,151.885 525.552,156.552 528.5,162.5C 529.094,166.345 529.094,170.345 528.5,174.5C 528.618,177.371 529.284,180.038 530.5,182.5C 529.689,183.216 529.022,184.05 528.5,185C 529.035,186.537 529.368,188.037 529.5,189.5C 526.837,191.631 524.504,194.131 522.5,197C 522.833,197.333 523.167,197.667 523.5,198C 521.867,198.48 520.534,199.313 519.5,200.5C 519.167,199.167 518.833,199.167 518.5,200.5C 517.29,200.932 516.29,201.599 515.5,202.5C 514.508,202.328 513.842,202.662 513.5,203.5C 511.97,204.067 510.47,204.733 509,205.5C 503,205.5 497,205.5 491,205.5C 485.784,203.018 481.284,200.352 477.5,197.5C 474.127,193.95 471.794,189.783 470.5,185C 471.815,183.605 471.481,182.605 469.5,182C 471.219,175.084 472.219,167.918 472.5,160.5C 472.818,159.353 473.484,158.519 474.5,158C 474.167,157.667 473.833,157.333 473.5,157C 475.55,156.584 476.884,155.417 477.5,153.5C 478.79,152.942 479.623,151.942 480,150.5C 481.313,151.287 482.48,150.954 483.5,149.5C 487.765,148.436 491.765,146.769 495.5,144.5C 498.833,145.833 502.167,145.833 505.5,144.5C 506.696,144.846 506.696,145.346 505.5,146C 508.768,147.15 512.101,147.984 515.5,148.5 Z M 508.5,160.5 C 510.5,161.167 511.833,162.5 512.5,164.5C 513.117,164.611 513.617,164.944 514,165.5C 514.939,168.764 515.439,172.097 515.5,175.5C 514.998,179.257 514.332,182.59 513.5,185.5C 512.443,186.784 511.443,188.117 510.5,189.5C 504.461,193.759 497.795,194.259 490.5,191C 488.819,188.656 487.152,186.323 485.5,184C 484.521,179.644 484.521,175.144 485.5,170.5C 485.216,168.585 485.549,166.919 486.5,165.5C 486.833,166.833 487.167,166.833 487.5,165.5C 489.193,163.99 490.027,162.323 490,160.5C 490.333,160.833 490.667,161.167 491,161.5C 496.595,156.58 502.428,156.247 508.5,160.5 Z"/></g>
<g><path style="opacity:0.451" fill="#efc6b5" d="M 28.5,146.5 C 32.1224,146.322 35.4557,146.989 38.5,148.5C 34.9219,148.451 31.5885,147.785 28.5,146.5 Z"/></g>
<g><path style="opacity:0.063" fill="#f7f8f7" d="M 515.5,147.5 C 516.833,148.167 516.833,148.167 515.5,147.5 Z"/></g>
<g><path style="opacity:0.039" fill="#fbfbfb" d="M 190.5,148.5 C 191.833,149.167 191.833,149.833 190.5,150.5C 190.5,149.833 190.5,149.167 190.5,148.5 Z"/></g>
<g><path style="opacity:0.016" fill="#fcfdfc" d="M 314.5,148.5 C 315.833,149.167 315.833,149.167 314.5,148.5 Z"/></g>
<g><path style="opacity:0.016" fill="#fbfcfb" d="M 483.5,149.5 C 482.833,148.167 482.833,148.167 483.5,149.5 Z"/></g>
<g><path style="opacity:0.09" fill="#f7f8f7" d="M 316.5,149.5 C 317.833,150.167 317.833,150.167 316.5,149.5 Z"/></g>
<g><path style="opacity:0.024" fill="#fafbfa" d="M 259.5,150.5 C 260.833,151.167 260.833,151.167 259.5,150.5 Z"/></g>
<g><path style="opacity:0.024" fill="#fbfcfb" d="M 366.5,151.5 C 367.525,151.897 367.692,152.563 367,153.5C 366.536,152.906 366.369,152.239 366.5,151.5 Z"/></g>
<g><path style="opacity:0.049" fill="#fbfbfb" d="M 596.5,151.5 C 597.652,156.985 597.818,162.651 597,168.5C 596.501,162.843 596.334,157.176 596.5,151.5 Z"/></g>
<g><path style="opacity:0.016" fill="#fbfcfb" d="M 207.5,153.5 C 206.833,152.167 206.833,152.167 207.5,153.5 Z"/></g>
<g><path style="opacity:0.09" fill="#f5f6f5" d="M 477.5,153.5 C 476.833,152.167 476.833,152.167 477.5,153.5 Z"/></g>
<g><path style="opacity:0.024" fill="#fbfcfb" d="M 679.5,154.5 C 678.833,153.167 678.833,153.167 679.5,154.5 Z"/></g>
<g><path style="opacity:0.016" fill="#fcfdfc" d="M 458.5,157.5 C 458.369,156.761 458.536,156.094 459,155.5C 459.692,156.437 459.525,157.103 458.5,157.5 Z"/></g>
<g><path style="opacity:0.071" fill="#f8f9f8" d="M 323.5,156.5 C 324.833,157.167 324.833,157.167 323.5,156.5 Z"/></g>
<g><path style="opacity:0.008" fill="#fafbfa" d="M 325.5,157.5 C 326.833,158.167 326.833,158.167 325.5,157.5 Z"/></g>
<g><path style="opacity:0.008" fill="#fcfdfc" d="M 202.5,159.5 C 201.833,158.167 201.833,158.167 202.5,159.5 Z"/></g>
<g><path style="opacity:0.024" fill="#fbfcfb" d="M 293.5,158.5 C 294.833,159.167 294.833,159.167 293.5,158.5 Z"/></g>
<g><path style="opacity:0.016" fill="#fcfdfc" d="M 433.5,158.5 C 434.833,159.167 434.833,159.167 433.5,158.5 Z"/></g>
<g><path style="opacity:0.008" fill="#fcfdfc" d="M 458.5,158.5 C 459.833,159.167 459.833,159.167 458.5,158.5 Z"/></g>
<g><path style="opacity:0.016" fill="#fbfcfb" d="M 633.5,158.5 C 634.833,159.167 634.833,159.167 633.5,158.5 Z"/></g>
<g><path style="opacity:0.024" fill="#fafbfa" d="M 675.5,159.5 C 674.833,158.167 674.833,158.167 675.5,159.5 Z"/></g>
<g><path style="opacity:0.008" fill="#fbfcfb" d="M 303.5,159.5 C 303.833,159.5 304.167,159.5 304.5,159.5C 304.315,160.17 303.981,160.17 303.5,159.5 Z"/></g>
<g><path style="opacity:0.008" fill="#fdfefd" d="M 350.5,159.5 C 351.833,160.167 351.833,160.167 350.5,159.5 Z"/></g>
<g><path style="opacity:0.008" fill="#f7f8f7" d="M 459.5,160.5 C 460.833,161.167 460.833,161.167 459.5,160.5 Z"/></g>
<g><path style="opacity:0.047" fill="#f9faf9" d="M 627.5,160.5 C 628.833,161.167 628.833,161.167 627.5,160.5 Z"/></g>
<g><path style="opacity:0.09" fill="#f7f8f7" d="M 287.5,161.5 C 288.833,162.167 288.833,162.167 287.5,161.5 Z"/></g>
<g><path style="opacity:0.008" fill="#fcfdfc" d="M 528.5,161.5 C 529.833,162.167 529.833,162.167 528.5,161.5 Z"/></g>
<g><path style="opacity:0.95" fill="#e1e1e1" d="M 255.5,147.5 C 256.239,147.369 256.906,147.536 257.5,148C 258.085,149.302 258.751,150.469 259.5,151.5C 258.171,170.958 258.171,190.458 259.5,210C 258.571,211.077 257.904,212.244 257.5,213.5C 256.662,213.842 256.328,214.508 256.5,215.5C 255.711,215.783 255.044,216.283 254.5,217C 255.774,217.977 255.774,218.811 254.5,219.5C 254.167,218.167 253.833,218.167 253.5,219.5C 251.066,220.771 249.566,222.771 249,225.5C 248.667,224.833 248.333,224.167 248,223.5C 246.13,225.219 243.963,226.219 241.5,226.5C 248.478,223.021 253.645,217.687 257,210.5C 257.667,190.167 257.667,169.833 257,149.5C 256.283,148.956 255.783,148.289 255.5,147.5 Z"/></g>
<g><path style="opacity:0.031" fill="#fbfcfb" d="M 431.5,163.5 C 432.833,164.167 432.833,164.167 431.5,163.5 Z"/></g>
<g><path style="opacity:0.106" fill="#fad6c5" d="M -0.5,164.5 C -0.5,164.167 -0.5,163.833 -0.5,163.5C 9.4298,163.371 19.0965,164.371 28.5,166.5C 18.8333,165.833 9.16667,165.167 -0.5,164.5 Z"/></g>
<g><path style="opacity:0.031" fill="#fbfcfb" d="M 284.5,164.5 C 285.833,165.167 285.833,165.167 284.5,164.5 Z"/></g>
<g><path style="opacity:0.008" fill="#fcfdfc" d="M 447.5,164.5 C 448.833,165.167 448.833,165.167 447.5,164.5 Z"/></g>
<g><path style="opacity:0.09" fill="#f8f8f8" d="M 529.5,163.5 C 530.525,163.897 530.692,164.563 530,165.5C 529.536,164.906 529.369,164.239 529.5,163.5 Z"/></g>
<g><path style="opacity:0.024" fill="#fafbfa" d="M 623.5,164.5 C 624.833,165.167 624.833,165.167 623.5,164.5 Z"/></g>
<g><path style="opacity:0.008" fill="#fcfdfc" d="M 414.5,165.5 C 413.833,166.167 413.833,166.167 414.5,165.5 Z"/></g>
<g><path style="opacity:0.039" fill="#fafbfa" d="M 622.5,165.5 C 622.833,165.5 623.167,165.5 623.5,165.5C 623.315,166.17 622.981,166.17 622.5,165.5 Z"/></g>
<g><path style="opacity:1" fill="#f73f13" d="M -0.5,164.5 C 9.16667,165.167 18.8333,165.833 28.5,166.5C 32.9192,167.972 37.5859,168.638 42.5,168.5C 44.9479,169.473 47.6146,169.806 50.5,169.5C 50.5,174.5 50.5,179.5 50.5,184.5C 36.9913,185.962 23.3246,187.295 9.5,188.5C 6.16667,188.5 2.83333,188.5 -0.5,188.5C -0.5,180.5 -0.5,172.5 -0.5,164.5 Z"/></g>
<g><path style="opacity:0.718" fill="#f2ae9c" d="M 28.5,166.5 C 36.3568,166.667 44.0235,167.334 51.5,168.5C 48.5,168.5 45.5,168.5 42.5,168.5C 37.5859,168.638 32.9192,167.972 28.5,166.5 Z"/></g>
<g><path style="opacity:0.047" fill="#fafbfa" d="M 447.5,167.5 C 448.833,168.167 448.833,168.167 447.5,167.5 Z"/></g>
<g><path style="opacity:0.88" fill="#dbdbdb" d="M 592.5,147.5 C 593.496,147.414 594.329,147.748 595,148.5C 595.667,166.5 595.667,184.5 595,202.5C 594,203.833 593,205.167 592,206.5C 589.174,205.787 586.34,205.12 583.5,204.5C 583.5,203.833 583.167,203.5 582.5,203.5C 582.5,203.167 582.5,202.833 582.5,202.5C 582.435,202.062 582.601,201.728 583,201.5C 586.713,205.487 590.38,205.487 594,201.5C 594.667,184.167 594.667,166.833 594,149.5C 593.283,148.956 592.783,148.289 592.5,147.5 Z"/></g>
<g><path style="opacity:0.039" fill="#fafbfa" d="M 451.5,169.5 C 452.833,170.167 452.833,170.167 451.5,169.5 Z"/></g>
<g><path style="opacity:0.024" fill="#fcfcfc" d="M 596.5,169.5 C 597.525,169.897 597.692,170.563 597,171.5C 596.536,170.906 596.369,170.239 596.5,169.5 Z"/></g>
<g><path style="opacity:0.024" fill="#fbfcfb" d="M 665.5,169.5 C 666.833,170.167 666.833,170.833 665.5,171.5C 665.5,170.833 665.5,170.167 665.5,169.5 Z"/></g>
<g><path style="opacity:0.788" fill="#e68d71" d="M 42.5,168.5 C 45.5,168.5 48.5,168.5 51.5,168.5C 51.5,171.833 51.5,175.167 51.5,178.5C 52.5729,180.653 52.5729,182.653 51.5,184.5C 51.1667,184.5 50.8333,184.5 50.5,184.5C 50.5,179.5 50.5,174.5 50.5,169.5C 47.6146,169.806 44.9479,169.473 42.5,168.5 Z"/></g>
<g><path style="opacity:0.008" fill="#fcfdfc" d="M 311.5,170.5 C 312.833,171.167 312.833,171.167 311.5,170.5 Z"/></g>
<g><path style="opacity:0.008" fill="#fcfdfc" d="M 469.5,170.5 C 470.833,171.167 470.833,171.167 469.5,170.5 Z"/></g>
<g><path style="opacity:0.027" fill="#fafafa" d="M 649.5,170.5 C 650.525,170.897 650.692,171.563 650,172.5C 649.536,171.906 649.369,171.239 649.5,170.5 Z"/></g>
<g><path style="opacity:0.024" fill="#fbfbfb" d="M 198.5,172.5 C 199.573,173.251 199.74,174.251 199,175.5C 198.517,174.552 198.351,173.552 198.5,172.5 Z"/></g>
<g><path style="opacity:0.016" fill="#fbfcfb" d="M 456.5,173.5 C 457.833,174.167 457.833,174.167 456.5,173.5 Z"/></g>
<g><path style="opacity:0.024" fill="#fbf7e7" d="M 51.5,168.5 C 52.2052,171.228 52.8719,174.061 53.5,177C 52.9558,177.717 52.2891,178.217 51.5,178.5C 51.5,175.167 51.5,171.833 51.5,168.5 Z"/></g>
<g><path style="opacity:0.035" fill="#fafafa" d="M 198.5,176.5 C 199.598,177.601 199.765,178.934 199,180.5C 198.51,179.207 198.343,177.873 198.5,176.5 Z"/></g>
<g><path style="opacity:0.024" fill="#fbfcfb" d="M 459.5,176.5 C 460.833,177.167 460.833,177.167 459.5,176.5 Z"/></g>
<g><path style="opacity:0.031" fill="#fbfcfb" d="M 424.5,177.5 C 423.833,178.167 423.833,178.167 424.5,177.5 Z"/></g>
<g><path style="opacity:0.016" fill="#fafbfa" d="M 132.5,181.5 C 133.833,182.167 133.833,182.167 132.5,181.5 Z"/></g>
<g><path style="opacity:0.008" fill="#fcfdfc" d="M 350.5,182.5 C 351.833,183.167 351.833,183.167 350.5,182.5 Z"/></g>
<g><path style="opacity:0.004" fill="#fff8f2" d="M 53.5,184.5 C 54.525,184.897 54.6917,185.563 54,186.5C 53.5357,185.906 53.369,185.239 53.5,184.5 Z"/></g>
<g><path style="opacity:0.055" fill="#f9e1d5" d="M 50.5,184.5 C 50.8333,184.5 51.1667,184.5 51.5,184.5C 49.9522,185.794 47.9522,186.461 45.5,186.5C 33.5055,187.648 21.5055,188.648 9.5,189.5C 9.5,189.167 9.5,188.833 9.5,188.5C 23.3246,187.295 36.9913,185.962 50.5,184.5 Z"/></g>
<g><path style="opacity:0.086" fill="#f7f8f7" d="M 151.5,186.5 C 152.833,187.167 152.833,187.167 151.5,186.5 Z"/></g>
<g><path style="opacity:0.008" fill="#fafbfa" d="M 428.5,186.5 C 429.833,187.167 429.833,187.167 428.5,186.5 Z"/></g>
<g><path style="opacity:0.576" fill="#f3ab97" d="M -0.5,188.5 C 2.83333,188.5 6.16667,188.5 9.5,188.5C 9.5,188.833 9.5,189.167 9.5,189.5C 6.09773,189.342 2.76439,189.676 -0.5,190.5C -0.5,189.833 -0.5,189.167 -0.5,188.5 Z"/></g>
<g><path style="opacity:0.071" fill="#f8f9f8" d="M 335.5,188.5 C 334.833,189.167 334.833,189.167 335.5,188.5 Z"/></g>
<g><path style="opacity:0.016" fill="#fcfdfc" d="M 135.5,189.5 C 134.833,190.167 134.833,190.167 135.5,189.5 Z"/></g>
<g><path style="opacity:0.016" fill="#fbfcfb" d="M 155.5,189.5 C 156.833,190.167 156.833,190.167 155.5,189.5 Z"/></g>
<g><path style="opacity:0.031" fill="#fafbfa" d="M 444.5,190.5 C 443.833,189.167 443.833,189.167 444.5,190.5 Z"/></g>
<g><path style="opacity:0.031" fill="#f9faf9" d="M 363.5,191.5 C 364.833,192.167 364.833,192.167 363.5,191.5 Z"/></g>
<g><path style="opacity:0.047" fill="#f8f9f8" d="M 436.5,191.5 C 437.833,192.167 437.833,192.167 436.5,191.5 Z"/></g>
<g><path style="opacity:0.031" fill="#f9faf9" d="M 569.5,191.5 C 570.833,192.167 570.833,192.167 569.5,191.5 Z"/></g>
<g><path style="opacity:0.078" fill="#f7f8f7" d="M 367.5,192.5 C 368.833,193.167 368.833,193.167 367.5,192.5 Z"/></g>
<g><path style="opacity:0.047" fill="#f7f8f7" d="M 369.5,192.5 C 370.833,193.167 370.833,193.167 369.5,192.5 Z"/></g>
<g><path style="opacity:0.047" fill="#f9faf9" d="M 168.5,193.5 C 169.833,194.167 169.833,194.167 168.5,193.5 Z"/></g>
<g><path style="opacity:0.013" fill="#fcfdfc" d="M 173.5,193.5 C 174.573,194.251 174.74,195.251 174,196.5C 173.517,195.552 173.351,194.552 173.5,193.5 Z"/></g>
<g><path style="opacity:0.047" fill="#f9faf9" d="M 369.5,194.5 C 370.833,195.167 370.833,195.167 369.5,194.5 Z"/></g>
<g><path style="opacity:0.024" fill="#fcfdfc" d="M 139.5,195.5 C 138.833,196.167 138.833,196.167 139.5,195.5 Z"/></g>
<g><path style="opacity:0.063" fill="#fafbfa" d="M 311.5,196.5 C 312.833,197.167 312.833,197.167 311.5,196.5 Z"/></g>
<g><path style="opacity:0.008" fill="#fcfdfc" d="M 171.5,197.5 C 172.833,198.167 172.833,198.167 171.5,197.5 Z"/></g>
<g><path style="opacity:0.008" fill="#fbfcfb" d="M 206.5,197.5 C 205.833,198.167 205.833,198.167 206.5,197.5 Z"/></g>
<g><path style="opacity:0.016" fill="#fbfcfb" d="M 477.5,197.5 C 476.833,198.167 476.833,198.167 477.5,197.5 Z"/></g>
<g><path style="opacity:0.016" fill="#fcfdfc" d="M 209.5,199.5 C 208.833,200.167 208.833,200.167 209.5,199.5 Z"/></g>
<g><path style="opacity:0.027" fill="#fafbfa" d="M 283.5,199.5 C 284.525,199.897 284.692,200.563 284,201.5C 283.536,200.906 283.369,200.239 283.5,199.5 Z"/></g>
<g><path style="opacity:0.031" fill="#fafafa" d="M 310.5,199.5 C 311.573,200.251 311.74,201.251 311,202.5C 310.517,201.552 310.351,200.552 310.5,199.5 Z"/></g>
<g><path style="opacity:0.086" fill="#f7f8f7" d="M 144.5,200.5 C 144.833,200.5 145.167,200.5 145.5,200.5C 145.315,201.17 144.981,201.17 144.5,200.5 Z"/></g>
<g><path style="opacity:0.047" fill="#f9faf9" d="M 418.5,200.5 C 418.833,200.5 419.167,200.5 419.5,200.5C 419.315,201.17 418.981,201.17 418.5,200.5 Z"/></g>
<g><path style="opacity:0.055" fill="#f9faf9" d="M 518.5,200.5 C 518.833,200.5 519.167,200.5 519.5,200.5C 519.315,201.17 518.981,201.17 518.5,200.5 Z"/></g>
<g><path style="opacity:0.008" fill="#fbfcfb" d="M 547.5,200.5 C 546.833,201.167 546.833,201.167 547.5,200.5 Z"/></g>
<g><path style="opacity:0.027" fill="#fbfbfb" d="M 649.5,201.5 C 650.525,201.897 650.692,202.563 650,203.5C 649.536,202.906 649.369,202.239 649.5,201.5 Z"/></g>
<g><path style="opacity:0.016" fill="#fbfcfb" d="M 189.5,202.5 C 190.833,203.167 190.833,203.167 189.5,202.5 Z"/></g>
<g><path style="opacity:0.031" fill="#f7f8f7" d="M 283.5,202.5 C 284.833,203.167 284.833,203.167 283.5,202.5 Z"/></g>
<g><path style="opacity:0.047" fill="#fafbfa" d="M 370.5,202.5 C 371.833,203.167 371.833,203.167 370.5,202.5 Z"/></g>
<g><path style="opacity:0.024" fill="#fafbfa" d="M 451.5,202.5 C 452.833,203.167 452.833,203.167 451.5,202.5 Z"/></g>
<g><path style="opacity:0.063" fill="#f8f9f8" d="M 515.5,202.5 C 516.833,203.167 516.833,203.167 515.5,202.5 Z"/></g>
<g><path style="opacity:0.024" fill="#fafbfa" d="M 685.5,202.5 C 684.833,203.167 684.833,203.167 685.5,202.5 Z"/></g>
<g><path style="opacity:0.024" fill="#fbfcfb" d="M 149.5,203.5 C 150.833,204.167 150.833,204.167 149.5,203.5 Z"/></g>
<g><path style="opacity:0.086" fill="#f8f9f8" d="M 177.5,203.5 C 176.833,204.167 176.833,204.167 177.5,203.5 Z"/></g>
<g><path style="opacity:0.016" fill="#fbfcfb" d="M 326.5,203.5 C 327.833,204.167 327.833,204.167 326.5,203.5 Z"/></g>
<g><path style="opacity:0.016" fill="#fcfdfc" d="M 369.5,203.5 C 369.833,203.5 370.167,203.5 370.5,203.5C 370.315,204.17 369.981,204.17 369.5,203.5 Z"/></g>
<g><path style="opacity:0.016" fill="#fbfcfb" d="M 422.5,203.5 C 423.833,204.167 423.833,204.167 422.5,203.5 Z"/></g>
<g><path style="opacity:0.047" fill="#fafbfa" d="M 449.5,203.5 C 450.833,204.167 450.833,204.167 449.5,203.5 Z"/></g>
<g><path style="opacity:0.055" fill="#f9faf9" d="M 513.5,203.5 C 514.833,204.167 514.833,204.167 513.5,203.5 Z"/></g>
<g><path style="opacity:0.031" fill="#fafbfa" d="M 550.5,203.5 C 551.833,204.167 551.833,204.167 550.5,203.5 Z"/></g>
<g><path style="opacity:0.008" fill="#fcfdfc" d="M 187.5,204.5 C 188.833,205.167 188.833,205.167 187.5,204.5 Z"/></g>
<g><path style="opacity:0.024" fill="#fbfcfb" d="M 215.5,204.5 C 216.833,205.167 216.833,205.167 215.5,204.5 Z"/></g>
<g><path style="opacity:0.008" fill="#fcfdfc" d="M 270.5,204.5 C 269.833,205.167 269.833,205.167 270.5,204.5 Z"/></g>
<g><path style="opacity:0.008" fill="#fbfcfb" d="M 312.5,204.5 C 313.833,205.167 313.833,205.167 312.5,204.5 Z"/></g>
<g><path style="opacity:0.008" fill="#fbfcfb" d="M 326.5,204.5 C 326.5,204.833 326.5,205.167 326.5,205.5C 325.83,205.019 325.83,204.685 326.5,204.5 Z"/></g>
<g><path style="opacity:0.063" fill="#f8f9f8" d="M 582.5,204.5 C 582.833,204.5 583.167,204.5 583.5,204.5C 583.315,205.17 582.981,205.17 582.5,204.5 Z"/></g>
<g><path style="opacity:0.016" fill="#fbfcfb" d="M 663.5,204.5 C 664.833,205.167 664.833,205.167 663.5,204.5 Z"/></g>
<g><path style="opacity:0.031" fill="#fafbfa" d="M 315.5,205.5 C 315.833,205.5 316.167,205.5 316.5,205.5C 316.315,206.17 315.981,206.17 315.5,205.5 Z"/></g>
<g><path style="opacity:0.016" fill="#f8f9f8" d="M 326.5,205.5 C 327.833,206.167 327.833,206.167 326.5,205.5 Z"/></g>
<g><path style="opacity:0.039" fill="#f9faf9" d="M 369.5,205.5 C 370.833,206.167 370.833,206.167 369.5,205.5 Z"/></g>
<g><path style="opacity:0.016" fill="#fbfcfb" d="M 443.5,205.5 C 444.833,206.167 444.833,206.167 443.5,205.5 Z"/></g>
<g><path style="opacity:0.024" fill="#fbfcfb" d="M 574.5,205.5 C 575.833,206.167 575.833,206.167 574.5,205.5 Z"/></g>
<g><path style="opacity:0.086" fill="#f8f9f8" d="M 617.5,205.5 C 618.833,206.167 618.833,206.167 617.5,205.5 Z"/></g>
<g><path style="opacity:0.008" fill="#fbfcfb" d="M 653.5,205.5 C 652.833,206.167 652.833,206.167 653.5,205.5 Z"/></g>
<g><path style="opacity:0.031" fill="#fafbfa" d="M 728.5,205.5 C 728.833,205.5 729.167,205.5 729.5,205.5C 729.315,206.17 728.981,206.17 728.5,205.5 Z"/></g>
<g><path style="opacity:0.247" fill="#fae1d3" d="M 48.5,207.5 C 50.6934,206.203 53.0268,206.203 55.5,207.5C 56.7914,208.527 56.7914,209.527 55.5,210.5C 54.596,209.791 54.2627,208.791 54.5,207.5C 52.5,207.5 50.5,207.5 48.5,207.5 Z"/></g>
<g><path style="opacity:0.467" fill="#fccab6" d="M 48.5,207.5 C 48.5,207.833 48.5,208.167 48.5,208.5C 45.4824,208.704 42.4824,209.037 39.5,209.5C 42.1709,207.882 45.1709,207.215 48.5,207.5 Z"/></g>
<g><path style="opacity:0.447" fill="#f7c4b2" d="M 38.5,209.5 C 31.1602,212.002 23.4935,213.335 15.5,213.5C 22.9822,211.808 30.6489,210.475 38.5,209.5 Z"/></g>
<g><path style="opacity:1" fill="#db5535" d="M 48.5,208.5 C 48.5,208.167 48.5,207.833 48.5,207.5C 50.5,207.5 52.5,207.5 54.5,207.5C 54.2627,208.791 54.596,209.791 55.5,210.5C 55.5,210.833 55.5,211.167 55.5,211.5C 55.5,212.5 55.5,213.5 55.5,214.5C 53.9261,212.898 53.2594,210.898 53.5,208.5C 51.8333,208.5 50.1667,208.5 48.5,208.5 Z"/></g>
<g><path style="opacity:0.016" fill="#fafbfa" d="M 205.5,213.5 C 206.833,214.167 206.833,214.167 205.5,213.5 Z"/></g>
<g><path style="opacity:0.055" fill="#f9faf9" d="M 221.5,213.5 C 222.833,214.167 222.833,214.167 221.5,213.5 Z"/></g>
<g><path style="opacity:0.016" fill="#fbfcfb" d="M 257.5,213.5 C 258.833,214.167 258.833,214.167 257.5,213.5 Z"/></g>
<g><path style="opacity:1" fill="#f63f14" d="M 48.5,208.5 C 50.1667,208.5 51.8333,208.5 53.5,208.5C 53.2594,210.898 53.9261,212.898 55.5,214.5C 56.1495,216.435 56.4828,218.435 56.5,220.5C 53.4582,220.733 50.7916,221.733 48.5,223.5C 48.1583,224.338 47.4916,224.672 46.5,224.5C 42.5698,224.635 39.2365,225.968 36.5,228.5C 32.8632,229.263 29.5299,230.597 26.5,232.5C 24.7839,232.629 23.1172,232.962 21.5,233.5C 18.1884,233.149 15.855,234.482 14.5,237.5C 12.6693,238.052 11.0026,238.052 9.5,237.5C 7.68122,232.696 5.68122,228.029 3.5,223.5C 3.23166,220.881 3.565,218.381 4.5,216C 7.5,215.667 10.5,215.333 13.5,215C 14.4158,214.722 15.0825,214.222 15.5,213.5C 23.4935,213.335 31.1602,212.002 38.5,209.5C 38.8333,209.5 39.1667,209.5 39.5,209.5C 42.4824,209.037 45.4824,208.704 48.5,208.5 Z"/></g>
<g><path style="opacity:0.596" fill="#f6c3b2" d="M 55.5,211.5 C 56.4111,213.916 57.4111,216.416 58.5,219C 58.1639,220.03 57.4972,220.53 56.5,220.5C 56.4828,218.435 56.1495,216.435 55.5,214.5C 55.5,213.5 55.5,212.5 55.5,211.5 Z"/></g>
<g><path style="opacity:0.031" fill="#fafbfa" d="M 256.5,215.5 C 257.833,216.167 257.833,216.167 256.5,215.5 Z"/></g>
<g><path style="opacity:0.541" fill="#f8c7b5" d="M 15.5,213.5 C 15.0825,214.222 14.4158,214.722 13.5,215C 10.5,215.333 7.5,215.667 4.5,216C 3.565,218.381 3.23166,220.881 3.5,223.5C 2.71712,221.657 2.05045,219.657 1.5,217.5C 1.97665,216.522 2.64332,215.689 3.5,215C 7.45973,214.149 11.4597,213.649 15.5,213.5 Z"/></g>
<g><path style="opacity:0.114" fill="#f5f6f5" d="M 253.5,219.5 C 253.833,219.5 254.167,219.5 254.5,219.5C 254.315,220.17 253.981,220.17 253.5,219.5 Z"/></g>
<g><path style="opacity:0.047" fill="#f9faf9" d="M 207.5,221.5 C 206.833,222.167 206.833,222.167 207.5,221.5 Z"/></g>
<g><path style="opacity:0.337" fill="#fac8be" d="M 56.5,220.5 C 54.3025,222.397 51.6358,223.397 48.5,223.5C 50.7916,221.733 53.4582,220.733 56.5,220.5 Z"/></g>
<g><path style="opacity:0.086" fill="#f7f8f7" d="M 210.5,224.5 C 210.833,224.5 211.167,224.5 211.5,224.5C 211.315,225.17 210.981,225.17 210.5,224.5 Z"/></g>
<g><path style="opacity:0.008" fill="#fcfdfc" d="M 213.5,225.5 C 212.833,226.167 212.833,226.167 213.5,225.5 Z"/></g>
<g><path style="opacity:0.275" fill="#fbc6b7" d="M 46.5,224.5 C 43.6601,226.915 40.3267,228.248 36.5,228.5C 39.2365,225.968 42.5698,224.635 46.5,224.5 Z"/></g>
<g><path style="opacity:0.008" fill="#fbfcfb" d="M 219.5,228.5 C 218.833,229.167 218.833,229.167 219.5,228.5 Z"/></g>
<g><path style="opacity:0.165" fill="#fcd8c2" d="M 36.5,228.5 C 33.6305,230.794 30.2971,232.128 26.5,232.5C 29.5299,230.597 32.8632,229.263 36.5,228.5 Z"/></g>
<g><path style="opacity:0.055" fill="#f7f8f7" d="M 220.5,229.5 C 221.833,230.167 221.833,230.167 220.5,229.5 Z"/></g>
<g><path style="opacity:0.016" fill="#fbfcfb" d="M 235.5,229.5 C 236.833,230.167 236.833,230.167 235.5,229.5 Z"/></g>
<g><path style="opacity:0.255" fill="#fbd3be" d="M 26.5,232.5 C 24.5739,234.293 22.2406,235.293 19.5,235.5C 20.1667,234.833 20.8333,234.167 21.5,233.5C 23.1172,232.962 24.7839,232.629 26.5,232.5 Z"/></g>
<g><path style="opacity:1" fill="#ec8865" d="M 21.5,233.5 C 20.8333,234.167 20.1667,234.833 19.5,235.5C 18.2196,236.931 16.5529,237.598 14.5,237.5C 15.855,234.482 18.1884,233.149 21.5,233.5 Z"/></g>
<g><path style="opacity:0.38" fill="#f5c7bb" d="M 3.5,223.5 C 5.68122,228.029 7.68122,232.696 9.5,237.5C 11.0026,238.052 12.6693,238.052 14.5,237.5C 12.6222,239.509 10.4556,239.842 8,238.5C 5.91647,233.669 4.41647,228.669 3.5,223.5 Z"/></g>
<g><path style="opacity:0.392" fill="#f7dcca" d="M 66.5,239.5 C 64.8333,239.5 63.1667,239.5 61.5,239.5C 63.2855,237.078 64.9522,237.078 66.5,239.5 Z"/></g>
<g><path style="opacity:0.102" fill="#fae7d9" d="M 66.5,239.5 C 67.6737,240.514 68.3404,241.847 68.5,243.5C 66.8958,242.713 66.2291,241.38 66.5,239.5 Z"/></g>
<g><path style="opacity:0.294" fill="#f8c6b1" d="M 61.5,239.5 C 57.1363,242.84 52.1363,244.84 46.5,245.5C 51.083,242.744 56.083,240.744 61.5,239.5 Z"/></g>
<g><path style="opacity:0.643" fill="#f0b196" d="M 46.5,245.5 C 44.4777,247.693 41.8111,248.693 38.5,248.5C 40.936,247.129 43.6027,246.129 46.5,245.5 Z"/></g>
<g><path style="opacity:0.847" fill="#ec927c" d="M 68.5,244.5 C 70.2624,245.262 71.2624,246.596 71.5,248.5C 71.7678,250.099 71.4345,251.432 70.5,252.5C 70.7128,249.549 70.0461,246.882 68.5,244.5 Z"/></g>
<g><path style="opacity:0.804" fill="#f3ae9c" d="M 38.5,248.5 C 33.1644,252.343 27.1644,254.676 20.5,255.5C 26.2788,252.792 32.2788,250.459 38.5,248.5 Z"/></g>
<g><path style="opacity:0.039" fill="#f4ecee" d="M 72.5,253.5 C 73.8333,254.167 73.8333,254.167 72.5,253.5 Z"/></g>
<g><path style="opacity:0.224" fill="#f9d1bf" d="M 71.5,248.5 C 72.4511,249.919 72.7845,251.585 72.5,253.5C 71.603,254.598 70.7697,254.598 70,253.5C 65.2018,257.478 60.0351,260.811 54.5,263.5C 58.6006,260.578 62.6006,257.411 66.5,254C 67.745,253.209 69.0783,252.709 70.5,252.5C 71.4345,251.432 71.7678,250.099 71.5,248.5 Z"/></g>
<g><path style="opacity:1" fill="#f63f14" d="M 61.5,239.5 C 63.1667,239.5 64.8333,239.5 66.5,239.5C 66.2291,241.38 66.8958,242.713 68.5,243.5C 68.5,243.833 68.5,244.167 68.5,244.5C 70.0461,246.882 70.7128,249.549 70.5,252.5C 69.0783,252.709 67.745,253.209 66.5,254C 62.6006,257.411 58.6006,260.578 54.5,263.5C 51.883,264.786 49.5496,266.453 47.5,268.5C 42.3346,270.338 38.0013,273.338 34.5,277.5C 32.9064,277.92 31.4064,278.586 30,279.5C 28.172,277.863 26.3386,276.197 24.5,274.5C 23.6618,274.158 23.3284,273.492 23.5,272.5C 21.2519,268.334 19.2519,264 17.5,259.5C 17.7867,257.557 18.7867,256.223 20.5,255.5C 27.1644,254.676 33.1644,252.343 38.5,248.5C 41.8111,248.693 44.4777,247.693 46.5,245.5C 52.1363,244.84 57.1363,242.84 61.5,239.5 Z"/></g>
<g><path style="opacity:0.024" fill="#fafbfa" d="M 170.5,257.5 C 171.833,258.167 171.833,258.167 170.5,257.5 Z"/></g>
<g><path style="opacity:0.016" fill="#fafbfa" d="M 234.5,257.5 C 235.833,258.167 235.833,258.167 234.5,257.5 Z"/></g>
<g><path style="opacity:0.031" fill="#fafbfa" d="M 138.5,259.5 C 137.833,258.167 137.833,258.167 138.5,259.5 Z"/></g>
<g><path style="opacity:0.055" fill="#f9faf9" d="M 173.5,258.5 C 174.833,259.167 174.833,259.167 173.5,258.5 Z"/></g>
<g><path style="opacity:0.993" fill="#fbfbfb" d="M 150.5,261.5 C 154.292,260.34 158.126,259.34 162,258.5C 165.533,259.161 169.366,259.494 173.5,259.5C 177.592,260.798 181.425,262.798 185,265.5C 185.333,265.167 185.667,264.833 186,264.5C 186.94,267.928 188.774,269.928 191.5,270.5C 190.959,272.523 191.459,274.523 193,276.5C 193.29,280.863 193.79,285.196 194.5,289.5C 193.462,291.569 193.796,293.569 195.5,295.5C 193.713,297.858 192.713,300.525 192.5,303.5C 190.492,304.301 189.992,305.634 191,307.5C 189.693,308.772 188.193,309.772 186.5,310.5C 185.754,311.736 185.421,313.07 185.5,314.5C 182.99,314.054 180.99,314.72 179.5,316.5C 177.876,316.36 176.71,317.027 176,318.5C 173.978,317.009 172.312,317.342 171,319.5C 165.888,318.758 160.722,318.092 155.5,317.5C 154.584,317.543 153.917,317.876 153.5,318.5C 152.5,318.5 151.5,318.5 150.5,318.5C 149.182,322.978 149.182,329.478 150.5,338C 149.99,339.826 149.156,339.993 148,338.5C 147.536,339.094 147.369,339.761 147.5,340.5C 144.167,340.5 140.833,340.5 137.5,340.5C 137.5,339.833 137.5,339.167 137.5,338.5C 136.842,313.402 136.176,288.402 135.5,263.5C 134.833,263.5 134.5,263.167 134.5,262.5C 135.74,261.341 137.074,260.341 138.5,259.5C 140.451,259.773 141.951,259.107 143,257.5C 145.429,258.818 147.596,260.484 149.5,262.5C 150.107,262.376 150.44,262.043 150.5,261.5 Z M 177.5,300.5 C 177.565,300.062 177.399,299.728 177,299.5C 176.167,300.333 175.333,301.167 174.5,302C 174.728,302.399 175.062,302.565 175.5,302.5C 175.158,303.338 174.492,303.672 173.5,303.5C 172.713,305.104 171.38,305.771 169.5,305.5C 165.277,306.728 160.944,306.561 156.5,305C 154.875,304.147 154.542,303.147 155.5,302C 152.771,302.295 151.104,300.795 150.5,297.5C 149.293,291.155 149.293,284.988 150.5,279C 151.782,275.802 153.782,274.302 156.5,274.5C 155.115,273.698 155.282,273.031 157,272.5C 170.707,267.668 178.541,273.002 180.5,288.5C 180.545,293.264 179.545,297.264 177.5,300.5 Z"/></g>
<g><path style="opacity:0.999" fill="#fdfdfd" d="M 239.5,269.5 C 236.901,269.549 234.734,270.549 233,272.5C 231.318,272.193 229.652,271.86 228,271.5C 226.775,271.862 225.609,272.362 224.5,273C 225.34,274.666 224.84,274.833 223,273.5C 221.198,274.789 220.031,276.456 219.5,278.5C 218.833,279.5 218.167,280.5 217.5,281.5C 216.657,291.756 216.157,302.756 216,314.5C 212.982,317.629 209.482,318.296 205.5,316.5C 204.361,298.877 204.194,281.21 205,263.5C 205.374,262.584 205.874,261.75 206.5,261C 210.624,259.944 214.29,260.778 217.5,263.5C 220.034,262.727 222.368,261.727 224.5,260.5C 228.702,259.201 233.036,259.201 237.5,260.5C 238.192,261.025 238.692,261.692 239,262.5C 239.144,265.025 239.31,267.358 239.5,269.5 Z"/></g>
<g><path style="opacity:0.096" fill="#f6f6f6" d="M 134.5,262.5 C 133.475,262.103 133.308,261.437 134,260.5C 134.464,261.094 134.631,261.761 134.5,262.5 Z"/></g>
<g><path style="opacity:0.09" fill="#f7f8f7" d="M 150.5,261.5 C 149.833,260.167 149.833,260.167 150.5,261.5 Z"/></g>
<g><path style="opacity:0.999" fill="#fafafa" d="M 296.5,268.5 C 298.454,271.069 300.12,273.736 301.5,276.5C 301.338,278.527 301.505,280.527 302,282.5C 302.649,279.063 303.149,278.896 303.5,282C 302.976,286.069 302.31,290.069 301.5,294C 303.158,294.725 303.658,295.892 303,297.5C 302.667,297.167 302.333,296.833 302,296.5C 301.28,298.112 301.446,299.612 302.5,301C 300.705,302.885 299.372,305.052 298.5,307.5C 297.833,307.5 297.5,307.833 297.5,308.5C 293.592,311.894 289.258,314.727 284.5,317C 285.696,317.654 285.696,318.154 284.5,318.5C 276.886,318.78 269.219,318.447 261.5,317.5C 258.096,316.011 254.929,314.011 252,311.5C 251.667,311.833 251.333,312.167 251,312.5C 250.667,311.5 250.333,310.5 250,309.5C 248.719,309.619 247.552,309.119 246.5,308C 246.833,307.667 247.167,307.333 247.5,307C 246.033,305.902 245.199,304.402 245,302.5C 244.346,303.696 243.846,303.696 243.5,302.5C 243.545,293.612 243.545,284.778 243.5,276C 244.965,274.226 246.298,272.392 247.5,270.5C 250.158,267.402 252.991,264.402 256,261.5C 256.414,261.957 256.914,262.291 257.5,262.5C 266.566,257.818 275.899,257.318 285.5,261C 289.894,262.582 293.561,265.082 296.5,268.5 Z M 282.5,274.5 C 283.833,275.167 284.833,276.167 285.5,277.5C 286.222,277.918 286.722,278.584 287,279.5C 287.383,285.339 287.549,291.006 287.5,296.5C 285.506,298.588 284.172,300.588 283.5,302.5C 283.167,301.167 282.833,301.167 282.5,302.5C 280.952,302.821 280.285,303.821 280.5,305.5C 279.5,305.5 278.5,305.5 277.5,305.5C 276.003,306.306 274.336,306.972 272.5,307.5C 266.699,306.937 262.199,304.271 259,299.5C 257.688,294.776 257.188,290.109 257.5,285.5C 257.363,283.159 258.03,281.159 259.5,279.5C 260.774,278.811 260.774,277.977 259.5,277C 260.471,275.519 261.804,274.685 263.5,274.5C 264.327,275.439 264.994,275.105 265.5,273.5C 266.239,273.631 266.906,273.464 267.5,273C 266.66,271.334 267.16,271.167 269,272.5C 270.333,271.833 271.667,271.167 273,270.5C 276.605,271.036 279.772,272.369 282.5,274.5 Z"/></g>
<g><path style="opacity:0.771" fill="#d7d7d7" d="M 135.5,263.5 C 136.176,288.402 136.842,313.402 137.5,338.5C 135.974,337.895 134.974,336.729 134.5,335C 135.48,311.033 135.813,287.2 135.5,263.5 Z"/></g>
<g><path style="opacity:0.227" fill="#f8c8b7" d="M 20.5,255.5 C 18.7867,256.223 17.7867,257.557 17.5,259.5C 19.2519,264 21.2519,268.334 23.5,272.5C 19.9716,268.625 17.3049,264.125 15.5,259C 16.2065,256.46 17.8732,255.293 20.5,255.5 Z"/></g>
<g><path style="opacity:0.782" fill="#dbdbdb" d="M 224.5,260.5 C 222.368,261.727 220.034,262.727 217.5,263.5C 214.29,260.778 210.624,259.944 206.5,261C 205.874,261.75 205.374,262.584 205,263.5C 204.194,281.21 204.361,298.877 205.5,316.5C 205.167,316.5 204.833,316.5 204.5,316.5C 203.514,297.868 203.181,279.368 203.5,261C 208.562,258.618 213.228,259.118 217.5,262.5C 218.192,261.975 218.692,261.308 219,260.5C 220.626,260.854 222.459,260.854 224.5,260.5 Z"/></g>
<g><path style="opacity:0.043" fill="#fee2d2" d="M 54.5,263.5 C 52.9767,266.364 50.6433,268.031 47.5,268.5C 49.5496,266.453 51.883,264.786 54.5,263.5 Z"/></g>
<g><path style="opacity:0.047" fill="#f9faf9" d="M 296.5,267.5 C 297.833,268.167 297.833,268.167 296.5,267.5 Z"/></g>
<g><path style="opacity:0.008" fill="#fafbfa" d="M 239.5,269.5 C 240.833,270.167 240.833,270.167 239.5,269.5 Z"/></g>
<g><path style="opacity:0.031" fill="#fbfcfb" d="M 247.5,270.5 C 246.833,269.167 246.833,269.167 247.5,270.5 Z"/></g>
<g><path style="opacity:0.008" fill="#fbfcfb" d="M 201.5,272.5 C 202.622,274.288 202.789,276.288 202,278.5C 201.505,276.527 201.338,274.527 201.5,272.5 Z"/></g>
<g><path style="opacity:0.427" fill="#f4bcac" d="M 90.5,278.5 C 91.0624,274.901 89.5624,272.901 86,272.5C 83.3784,273.625 80.8784,274.959 78.5,276.5C 81.6859,270.456 85.8526,269.456 91,273.5C 91.7796,275.387 91.6129,277.054 90.5,278.5 Z"/></g>
<g><path style="opacity:0.129" fill="#fbd1c1" d="M 47.5,268.5 C 44.5707,270.982 41.5707,273.482 38.5,276C 37.255,276.791 35.9217,277.291 34.5,277.5C 38.0013,273.338 42.3346,270.338 47.5,268.5 Z"/></g>
<g><path style="opacity:0.016" fill="#fbfcfb" d="M 301.5,275.5 C 302.833,276.167 302.833,276.167 301.5,275.5 Z"/></g>
<g><path style="opacity:0.502" fill="#f8bcaf" d="M 78.5,276.5 C 77.7377,278.262 76.4044,279.262 74.5,279.5C 75.2623,277.738 76.5956,276.738 78.5,276.5 Z"/></g>
<g><path style="opacity:0.029" fill="#fafafa" d="M 219.5,278.5 C 220.573,279.251 220.74,280.251 220,281.5C 219.517,280.552 219.351,279.552 219.5,278.5 Z"/></g>
<g><path style="opacity:0.024" fill="#f8cbbb" d="M 24.5,274.5 C 26.3386,276.197 28.172,277.863 30,279.5C 31.4064,278.586 32.9064,277.92 34.5,277.5C 29.5266,283.23 26.1933,282.23 24.5,274.5 Z"/></g>
<g><path style="opacity:0.752" fill="#dcdcdc" d="M 217.5,281.5 C 217.576,293.013 217.576,304.346 217.5,315.5C 213.7,318.915 209.7,319.248 205.5,316.5C 209.482,318.296 212.982,317.629 216,314.5C 216.157,302.756 216.657,291.756 217.5,281.5 Z"/></g>
<g><path style="opacity:0.427" fill="#f9c7b2" d="M 74.5,279.5 C 73.0892,281.914 71.0892,283.581 68.5,284.5C 69.9108,282.086 71.9108,280.419 74.5,279.5 Z"/></g>
<g><path style="opacity:0.192" fill="#fac6b1" d="M 90.5,278.5 C 89.5806,281.089 87.914,283.089 85.5,284.5C 86.2471,281.638 87.9138,279.638 90.5,278.5 Z"/></g>
<g><path style="opacity:0.467" fill="#f8cab6" d="M 68.5,284.5 C 67.7377,286.262 66.4044,287.262 64.5,287.5C 65.2623,285.738 66.5956,284.738 68.5,284.5 Z"/></g>
<g><path style="opacity:0.165" fill="#faccb7" d="M 85.5,284.5 C 83.6563,288.192 81.3229,291.525 78.5,294.5C 78.5569,293.391 78.8902,292.391 79.5,291.5C 80.7997,288.568 82.7997,286.234 85.5,284.5 Z"/></g>
<g><path style="opacity:0.243" fill="#fdd8cc" d="M 64.5,287.5 C 64.1667,288.5 63.5,289.167 62.5,289.5C 62.5,288.167 63.1667,287.5 64.5,287.5 Z"/></g>
<g><path style="opacity:1" fill="#f3704e" d="M 79.5,291.5 C 78.8902,292.391 78.5569,293.391 78.5,294.5C 77.8333,295.833 76.8333,296.833 75.5,297.5C 75.5,295.5 75.5,293.5 75.5,291.5C 76.8333,291.5 78.1667,291.5 79.5,291.5 Z"/></g>
<g><path style="opacity:0.259" fill="#fbcbbb" d="M 62.5,289.5 C 59.7915,292.209 56.7915,294.542 53.5,296.5C 55.6367,293.027 58.6367,290.694 62.5,289.5 Z"/></g>
<g><path style="opacity:1" fill="#f54015" d="M 90.5,278.5 C 87.9138,279.638 86.2471,281.638 85.5,284.5C 82.7997,286.234 80.7997,288.568 79.5,291.5C 78.1667,291.5 76.8333,291.5 75.5,291.5C 75.5,293.5 75.5,295.5 75.5,297.5C 74.0937,297.973 73.427,298.973 73.5,300.5C 73.5,301.167 73.1667,301.5 72.5,301.5C 71.0937,301.973 70.427,302.973 70.5,304.5C 69.5084,304.328 68.8417,304.662 68.5,305.5C 66.8235,306.183 66.1568,307.517 66.5,309.5C 64.4013,311.994 62.068,314.327 59.5,316.5C 56.4172,313.406 53.0839,310.739 49.5,308.5C 46.5149,305.966 46.1816,303.299 48.5,300.5C 50.7488,299.92 52.4154,298.587 53.5,296.5C 56.7915,294.542 59.7915,292.209 62.5,289.5C 63.5,289.167 64.1667,288.5 64.5,287.5C 66.4044,287.262 67.7377,286.262 68.5,284.5C 71.0892,283.581 73.0892,281.914 74.5,279.5C 76.4044,279.262 77.7377,278.262 78.5,276.5C 80.8784,274.959 83.3784,273.625 86,272.5C 89.5624,272.901 91.0624,274.901 90.5,278.5 Z"/></g>
<g><path style="opacity:0.424" fill="#fcccb7" d="M 53.5,296.5 C 52.4154,298.587 50.7488,299.92 48.5,300.5C 49.5846,298.413 51.2512,297.08 53.5,296.5 Z"/></g>
<g><path style="opacity:0.235" fill="#fac4b3" d="M 75.5,297.5 C 75.573,299.027 74.9063,300.027 73.5,300.5C 73.427,298.973 74.0937,297.973 75.5,297.5 Z"/></g>
<g><path style="opacity:0.016" fill="#fafbfa" d="M 193.5,301.5 C 194.833,302.167 194.833,302.167 193.5,301.5 Z"/></g>
<g><path style="opacity:0.298" fill="#f9d4c0" d="M 48.5,300.5 C 46.1816,303.299 46.5149,305.966 49.5,308.5C 47.078,307.915 45.4113,306.415 44.5,304C 45.1029,301.929 46.4362,300.762 48.5,300.5 Z"/></g>
<g><path style="opacity:0.204" fill="#f9c8b6" d="M 72.5,301.5 C 72.573,303.027 71.9063,304.027 70.5,304.5C 70.427,302.973 71.0937,301.973 72.5,301.5 Z"/></g>
<g><path style="opacity:0.024" fill="#fafbfa" d="M 192.5,303.5 C 193.833,304.167 193.833,304.167 192.5,303.5 Z"/></g>
<g><path style="opacity:1" fill="#f48161" d="M 68.5,305.5 C 68.5,306.167 68.5,306.833 68.5,307.5C 68.1667,308.5 67.5,309.167 66.5,309.5C 66.1568,307.517 66.8235,306.183 68.5,305.5 Z"/></g>
<g><path style="opacity:0.008" fill="#f2d7cd" d="M 70.5,304.5 C 70.573,306.027 69.9063,307.027 68.5,307.5C 68.5,306.833 68.5,306.167 68.5,305.5C 68.8417,304.662 69.5084,304.328 70.5,304.5 Z"/></g>
<g><path style="opacity:0.008" fill="#fafbfa" d="M 298.5,307.5 C 299.833,308.167 299.833,308.167 298.5,307.5 Z"/></g>
<g><path style="opacity:0.016" fill="#fafbfa" d="M 297.5,308.5 C 297.833,308.5 298.167,308.5 298.5,308.5C 298.315,309.17 297.981,309.17 297.5,308.5 Z"/></g>
<g><path style="opacity:0.024" fill="#fafbfa" d="M 217.5,315.5 C 218.833,316.167 218.833,316.167 217.5,315.5 Z"/></g>
<g><path style="opacity:0.412" fill="#f4bcb0" d="M 49.5,308.5 C 53.0839,310.739 56.4172,313.406 59.5,316.5C 62.068,314.327 64.4013,311.994 66.5,309.5C 65.3581,313.462 63.0247,316.462 59.5,318.5C 55.8123,315.479 52.4789,312.146 49.5,308.5 Z"/></g>
<g><path style="opacity:0.016" fill="#fbfcfb" d="M 179.5,316.5 C 180.833,317.167 180.833,317.167 179.5,316.5 Z"/></g>
<g><path style="opacity:0.008" fill="#fcfdfc" d="M 204.5,316.5 C 203.833,317.167 203.833,317.167 204.5,316.5 Z"/></g>
<g><path style="opacity:0.016" fill="#fcfdfc" d="M 261.5,317.5 C 260.833,318.167 260.833,318.167 261.5,317.5 Z"/></g>
<g><path style="opacity:0.013" fill="#fdfefd" d="M 153.5,318.5 C 154.552,318.351 155.552,318.517 156.5,319C 155.251,319.74 154.251,319.573 153.5,318.5 Z"/></g>
<g><path style="opacity:0.013" fill="#f9faf9" d="M 133.5,336.5 C 134.573,337.251 134.74,338.251 134,339.5C 133.517,338.552 133.351,337.552 133.5,336.5 Z"/></g>
</svg>
